<?xml version="1.0" encoding="utf-8"?>
<!-- Generator: Adobe Illustrator 22.1.0, SVG Export Plug-In . SVG Version: 6.00 Build 0)  -->
<svg version="1.1" xmlns="http://www.w3.org/2000/svg" xmlns:xlink="http://www.w3.org/1999/xlink" x="0px" y="0px"
	 viewBox="0 0 292.6 71.9" style="enable-background:new 0 0 292.6 71.9;" xml:space="preserve">
<style type="text/css">
	.st0{fill-rule:evenodd;clip-rule:evenodd;fill:#E31837;}
</style>
<g id="Rutgers">
	<g>
		<path class="st0" d="M65.9,42.2l1.6-0.5V15.6c0-6.3,0-6.6,2-6.8l1.9-0.2V7.5H58.7v1.1l1.9,0.2c2,0.2,2,0.5,2,6.8v21.1
			c-0.8,0.9-4,4.2-9.4,4.2c-8.1,0-9.3-4.9-9.3-12.4V15.6c0-6.3,0-6.6,2-6.8l1.9-0.2V7.5H35.2v1.1l1.9,0.2c2,0.2,2,0.5,2,6.8v13.7
			c0,7.1,0.9,13.3,11.6,13.3c6.9,0,11.2-3.3,11.9-3.3c0.8,0,1.2,0.7,1.9,1.5L65.9,42.2z"/>
		<path class="st0" d="M79.8,41.8h14.4v-1.1l-1.9-0.2c-2.9-0.2-2.9-0.5-2.9-6.8V8.9h2.7c7.3,0,7.4,0.8,8.6,6.8h1.2
			c0-0.2-0.3-7.1-0.5-8.3H72.6c-0.2,1.1-0.5,8.1-0.5,8.3h1.2c1.1-6,1.2-6.8,8.6-6.8h2.7v24.7c0,6.3,0,6.6-2.9,6.8l-1.9,0.2V41.8z"/>
		<path class="st0" d="M133.9,34.9c0-5.1,0-5.3,1-5.5l1.9-0.2v-1.1h-13.2v1.1l1.9,0.2c3.6,0.2,3.6,0.5,3.6,6.8v3.9
			c-1.8,0.5-4.2,0.7-6.1,0.7c-10.2,0-14.7-8.2-14.7-17.1c0-9.7,5.4-15.3,13.9-15.3c8.9,0,9.6,6.3,10.1,8.4l1.4-0.3
			c-0.2-2.6-0.5-5.5-0.8-7.7c-1.4-0.8-5.3-2.1-10.6-2.1c-8.2,0-19.4,4.2-19.4,18c0,13.2,9.3,17.8,19.8,17.8c5.6,0,9.5-1.5,11.4-2.1
			C134,40.5,133.9,36.5,133.9,34.9z"/>
		<path class="st0" d="M140,41.8h23.8c0.7-2.8,1.3-5.4,1.7-8.6l-1.3-0.2c-1,4.3-1.6,7.4-9.8,7.4c-1.9,0-3.8-0.3-5.6-0.7v-15h4.6
			c4,0,5,0.1,5.3,2.2l0.3,1.8h1.4v-9.3h-1.4l-0.3,1.8c-0.3,2.1-1.2,2.2-5.3,2.2h-4.6V8.9h4.3c7.3,0,7.4,0.8,8.6,6.3l1.2-0.2
			c0-0.5-0.3-6.4-0.5-7.6H140v1.1l1.9,0.2c2,0.2,2,0.5,2,6.8v18.1c0,6.4,0,6.6-2,6.8l-1.9,0.2V41.8z"/>
		<path class="st0" d="M169.6,41.8h12.6v-1.1l-1.9-0.2c-2-0.2-2-0.5-2-6.8v-6.9h1.9c1.1,0,2.4,0,3.2,0.7c0.7,0.6,1.9,2.6,3.2,5.1
			l2.1,4c1.6,2.9,3.9,5.2,7.4,5.2h4v-1.1c-1.1,0-2.1-0.2-2.6-0.5c-1.3-0.7-3.6-3.8-5.8-7.7c-1.4-2.5-3.1-5.8-3.9-7.3
			c2.9-1.4,7.2-4.2,7.2-9.1c0-7.9-7-8.6-11.9-8.6h-13.6v1.1l1.9,0.2c2,0.2,2,0.5,2,6.8v18.1c0,6.3,0,6.6-2,6.8l-1.9,0.2V41.8z
			 M178.3,9.6c1-0.2,2.1-0.4,3.2-0.4c4.1,0,8,1.9,8,7.9c0,5.9-3.9,8.2-8.3,8.2h-3V9.6z"/>
		<path class="st0" d="M211.4,20.5c-2.8-1.7-5-3.3-5-6.4c0-3.5,2.6-5.7,5.7-5.7c5.9,0,6.7,4.5,7.2,7.1h1.3c-0.1-1.5-0.3-5.3-0.5-7.2
			c-1.3-0.8-3.9-1.7-7.2-1.7c-5.5,0-10.8,2.7-10.8,9c0,3.9,2.8,7.1,5.7,8.7l3.3,1.8c4.1,1.8,7.2,4.4,7.2,8.2c0,4.1-2.7,6.4-6.2,6.4
			c-7.1,0-9-6.2-9.6-9.9l-1.7,0.4c0.6,3.6,1.2,7.2,1.7,9.1c1.6,1,4.1,2.1,8.2,2.1c5.5,0,12-2.7,12-9.7c0-6.2-4.3-8.4-8.4-10.8
			L211.4,20.5z"/>
		<path class="st0" d="M23.3,22c0.6,3.3,5.2,11.7,6.9,14.9c4,7.3,14.2,22.2,21.8,21.7l0.9,0l0,1.2l-1.3,0
			c-10.8,0.4-20.4-11.6-26-21.2c-2.3-3.9-4.5-8.5-6.5-12.5c-0.5-1.1-1.1-1.7-1.8-2.1c-1.1-0.6-2.4-0.6-3.6-0.6c-0.7,0-2.6,0-3.7,0
			l0,8.7c0,1.6-0.1,5.5,0.3,7.1c0.3,1.2,1.1,1.4,2.3,1.5l2.1,0.2v1H0v-1l2.1-0.2c1.3-0.1,2-0.3,2.4-1.5c0.4-1.5,0.3-5.5,0.3-7.1V9.7
			c0-1.6,0.1-5.5-0.3-7.1C4.1,1.4,3.4,1.3,2.1,1.2L0,1V0l10,0c8.8,0,20.8-1.3,20.8,11.2c0,5-3.4,8.3-7.6,10.4
			C23.2,21.7,23.3,22,23.3,22z M10,22c1.6,0.1,3.3,0,4.9,0c6.1,0,9.9-3.3,9.9-9.4c0-6.7-3.8-10.8-10.6-10.8c-1.4,0-2.8,0.3-4.2,0.5
			L10,22z"/>
	</g>
</g>
<g id="CAMPUS_DESIGNATION">
	<g>
		<path d="M72.1,62.6v1.6c0,0.6,0,1.2,0,1.8c0,2.1-1,3.2-3.2,3.2c-1.4,0-2.8-0.5-3.2-2c-0.1-0.4-0.1-0.9-0.1-1.3c0-1.8,0-3.5,0-5.2
			l0.1-0.1c0.5,0,0.9,0,1.4,0l0.1,0.1c-0.1,1.5,0,3,0,4.6c0,0.9-0.1,2.2,0.8,2.7c0.3,0.2,0.8,0.3,1.2,0.3c0.5,0,1-0.1,1.3-0.4
			C71.1,67,71,65.9,71,65c0-1.5,0-3-0.1-4.5l0.1-0.1c0.4,0,0.7,0,1.1,0l0.1,0.1C72.1,61.2,72.1,61.9,72.1,62.6z"/>
		<path d="M83,68.9c-0.5,0-1,0-1.5,0l-0.1-0.1c-0.7-1.3-1.4-2.5-2.1-3.8l-1.9-3.4l0.1,4.1c0,1,0.1,2,0.1,3l-0.1,0.1
			c-0.4,0-0.8,0-1.2,0l-0.1-0.1c0.1-1.6,0.1-3.2,0.1-4.7c0-1.2,0-2.4-0.1-3.6l0.1-0.1c0.5,0,1,0,1.5,0l0.1,0.1
			c1.3,2.4,2.6,4.7,3.9,7c-0.1-2.3-0.1-4.6-0.2-7l0.1-0.1c0.4,0,0.8,0,1.1,0l0.1,0.1c0,1.8,0,3.5,0,5.3C83,66.8,83,67.8,83,68.9
			L83,68.9z"/>
		<path d="M88.6,68.9c-0.4,0-0.9,0-1.3,0l-0.1-0.1c0-0.8,0.1-1.7,0.1-2.5V65c0-1.5,0-3-0.1-4.5l0.1-0.1c0.4,0,0.9,0,1.3,0l0.1,0.1
			c0,1.3-0.1,2.5-0.1,3.8C88.6,65.8,88.6,67.3,88.6,68.9L88.6,68.9z"/>
		<path d="M97.7,64.7c-0.4,1.4-0.9,2.8-1.3,4.2l-0.1,0.1c-0.6,0-1.2,0-1.7,0l-0.1-0.1c-0.1-0.3-0.2-0.7-0.3-1.1
			c-0.2-0.6-0.4-1.3-0.6-1.9c-0.5-1.8-1.1-3.6-1.7-5.4l0.1-0.1c0.5,0,0.9,0,1.4,0l0.1,0.1c0.6,2.5,1.4,5,2.1,7.6l1.1-3.8
			c0.4-1.2,0.7-2.5,1-3.8l0.1-0.1c0.4,0,0.8,0,1.2,0l0.1,0.1C98.5,61.9,98.1,63.3,97.7,64.7z"/>
		<path d="M107.4,68.8L107.4,68.8c-1.8,0.1-3.4,0.1-5.1,0.1l-0.1-0.1c0.1-1.7,0.1-3.5,0.1-5.2c0-1,0-2.1-0.1-3.1l0.1-0.1
			c1.7,0,3.4,0,5,0l0.1,0.1c0,0.3-0.1,0.6-0.1,0.9l-0.1,0.1c-1.2,0-2.4-0.1-3.6-0.1c0,0.9,0,1.7,0,2.6h1.2c0.7,0,1.4,0,2.1,0
			l0.1,0.1c0,0.3-0.1,0.6-0.1,0.9l-0.1,0.1c-0.9,0-1.8,0-2.6,0h-0.7c0,0.6,0,1.1,0,1.7c0,0.4,0,0.8,0,1.2h0.7c1,0,2.1,0,3.1-0.1
			l0.1,0.1C107.4,68.2,107.4,68.5,107.4,68.8z"/>
		<path d="M117.4,68.9c-0.5,0-1,0-1.5,0l-0.1,0c-0.4-0.7-0.8-1.3-1.2-2c-0.4-0.6-0.7-1.1-1.1-1.7c-0.3,0-0.6,0-0.9,0
			c0,1.2,0,2.3,0.1,3.5l-0.1,0.1c-0.4,0-0.9,0-1.3,0l-0.1-0.1c0-1.2,0-2.3,0-3.5c0-1.6,0-3.2-0.1-4.8l0.1-0.1c0.5,0,1,0,1.5,0h0.7
			c1.6,0,3.4,0.3,3.4,2.3c0,1.3-0.9,2.1-2,2.4c0.9,1.2,1.7,2.5,2.6,3.7L117.4,68.9z M115.2,61.9c-0.5-0.5-1.2-0.5-1.8-0.5
			c-0.3,0-0.5,0-0.8,0c0,0.3,0,0.6,0,0.9v1c0,0.3,0,0.6,0,1c0.2,0,0.3,0,0.5,0c1,0,2.4-0.2,2.4-1.5
			C115.5,62.5,115.4,62.1,115.2,61.9z"/>
		<path d="M122.8,69.1c-0.8,0-1.7-0.2-2.4-0.5l0-0.1c0-0.4,0.1-0.7,0.1-1.1l0.1,0c0.6,0.5,1.3,0.7,2.1,0.7c0.9,0,1.8-0.3,1.8-1.4
			c0-1.8-4.1-1.3-4.1-4.1c0-1.6,1.4-2.3,2.9-2.3c0.8,0,1.4,0.1,2.1,0.4l0.1,0.1c0,0.3-0.1,0.7-0.1,1.1l-0.1,0.1
			c-0.6-0.4-1.2-0.6-2-0.6c-0.7,0-1.6,0.3-1.6,1.2c0,1.8,4.2,1.2,4.2,4.1C126,68.3,124.4,69.1,122.8,69.1z"/>
		<path d="M131.1,68.9c-0.4,0-0.9,0-1.3,0l-0.1-0.1c0-0.8,0.1-1.7,0.1-2.5V65c0-1.5,0-3-0.1-4.5l0.1-0.1c0.4,0,0.9,0,1.3,0l0.1,0.1
			c0,1.3-0.1,2.5-0.1,3.8C131.1,65.8,131.1,67.3,131.1,68.9L131.1,68.9z"/>
		<path d="M140.4,61.4L140.4,61.4c-0.8,0.1-1.5,0.1-2.3,0.1c0,1.2,0,2.3,0,3.5c0,1.3,0,2.6,0.1,3.9l-0.1,0.1c-0.5,0-0.9,0-1.4,0
			l-0.1-0.1c0.1-1.7,0.1-3.4,0.1-5c0-0.8,0-1.6,0-2.4c-0.7,0-1.5,0-2.2,0.1l-0.1-0.1c0-0.3,0-0.6,0-0.9l0.1-0.1c2,0,3.9,0,5.9,0
			l0.1,0.1C140.5,60.8,140.5,61.1,140.4,61.4z"/>
		<path d="M147.3,65.3c0,0.3,0,0.6,0,0.9c0,0.9,0,1.7,0.1,2.6l-0.1,0.1c-0.4,0-0.9,0-1.3,0l-0.1-0.1c0-0.7,0-1.5,0-2.2v-1.2
			c-0.9-1.6-1.7-3.3-2.6-4.9l0.1-0.1c0.5,0,0.9,0,1.4-0.1l0.1,0.1c0.4,0.7,0.7,1.4,1,2.1c0.3,0.6,0.6,1.1,0.9,1.7
			c0.7-1.2,1.3-2.5,1.9-3.7l0.1-0.1c0.4,0,0.8,0,1.2,0l0.1,0.1C149.1,62.1,148.1,63.7,147.3,65.3z"/>
		<path d="M158.2,71.9v-12h1v12H158.2z"/>
		<path d="M175.9,68.9c-0.5,0-1,0-1.5,0l-0.1-0.1c-0.7-1.3-1.4-2.5-2.1-3.8l-1.9-3.4l0.1,4.1c0,1,0.1,2,0.1,3l-0.1,0.1
			c-0.4,0-0.8,0-1.2,0l-0.1-0.1c0.1-1.6,0.1-3.2,0.1-4.7c0-1.2,0-2.4-0.1-3.6l0.1-0.1c0.5,0,1,0,1.5,0l0.1,0.1
			c1.3,2.4,2.6,4.7,3.9,7c-0.1-2.3-0.1-4.6-0.2-7l0.1-0.1c0.4,0,0.8,0,1.1,0l0.1,0.1c0,1.8,0,3.5,0,5.3
			C176,66.8,176,67.8,175.9,68.9L175.9,68.9z"/>
		<path d="M185.3,68.8L185.3,68.8c-1.8,0.1-3.4,0.1-5.1,0.1l-0.1-0.1c0.1-1.7,0.1-3.5,0.1-5.2c0-1,0-2.1-0.1-3.1l0.1-0.1
			c1.7,0,3.4,0,5,0l0.1,0.1c0,0.3-0.1,0.6-0.1,0.9l-0.1,0.1c-1.2,0-2.4-0.1-3.6-0.1c0,0.9,0,1.7,0,2.6h1.2c0.7,0,1.4,0,2.1,0
			l0.1,0.1c0,0.3-0.1,0.6-0.1,0.9l-0.1,0.1c-0.9,0-1.8,0-2.6,0h-0.7c0,0.6,0,1.1,0,1.7c0,0.4,0,0.8,0,1.2h0.7c1,0,2.1,0,3.1-0.1
			l0.1,0.1C185.3,68.2,185.3,68.5,185.3,68.8z"/>
		<path d="M197.7,64.4c-0.2,1.1-0.5,2.2-0.7,3.2c-0.1,0.4-0.2,0.8-0.3,1.2l-0.1,0.1c-0.6,0-1.2,0-1.7,0l-0.1-0.1
			c-0.1-0.8-0.3-1.6-0.4-2.4l-1-5.2c-0.5,2.5-1,5-1.5,7.6l-0.1,0.1c-0.6,0-1.2,0-1.7,0l-0.1-0.1c-0.3-1.4-0.6-2.8-0.9-4.2
			c-0.3-1.4-0.6-2.8-0.9-4.1l0.1-0.1c0.5,0,0.9,0,1.4,0l0.1,0.1c0.4,2.5,0.9,5.1,1.4,7.6c0.5-2.5,1-5,1.4-7.5l0.1-0.1
			c0.6,0,1.3,0,1.9,0l0.1,0.1c0.1,0.9,0.3,1.7,0.4,2.6l0.9,5l0.9-4.7c0.2-0.9,0.4-1.9,0.5-2.8l0.1-0.1c0.4,0,0.8,0,1.2,0l0.1,0.1
			C198.3,61.8,198,63.1,197.7,64.4z"/>
		<path d="M213.4,68c-0.8,0.9-1.9,1-3,1h-0.3l-2.1,0l-0.1-0.1c0-0.6,0-1.2,0-1.8v-4.4c0-0.7,0-1.4-0.1-2.1l0.1-0.1
			c0.9,0,1.7,0,2.6,0c0.9,0,1.9,0,2.5,0.8c0.3,0.3,0.5,0.8,0.5,1.2c0,0.8-0.4,1.5-1.1,1.8c-0.2,0.1-0.4,0.2-0.7,0.2
			c1.3,0,2.2,0.7,2.2,2C213.9,67,213.8,67.6,213.4,68z M212,62c-0.3-0.6-1-0.6-1.6-0.6c-0.4,0-0.8,0-1.1,0v2.7h0.4
			c0.8,0,1.8,0,2.3-0.7c0.2-0.2,0.3-0.5,0.3-0.8C212.2,62.4,212.1,62.2,212,62z M210.4,65c-0.4,0-0.8,0-1.2,0c0,1,0,1.9,0,2.9
			c0.1,0,0.2,0,0.2,0h0.5c0.7,0,1.8,0,2.2-0.6c0.2-0.3,0.3-0.6,0.3-0.9C212.5,65.2,211.4,65,210.4,65z"/>
		<path d="M224,68.9c-0.5,0-1,0-1.5,0l-0.1,0c-0.4-0.7-0.8-1.3-1.2-2c-0.4-0.6-0.7-1.1-1.1-1.7c-0.3,0-0.6,0-0.9,0
			c0,1.2,0,2.3,0.1,3.5l-0.1,0.1c-0.4,0-0.9,0-1.3,0l-0.1-0.1c0-1.2,0-2.3,0-3.5c0-1.6,0-3.2-0.1-4.8l0.1-0.1c0.5,0,1,0,1.5,0h0.7
			c1.6,0,3.4,0.3,3.4,2.3c0,1.3-0.9,2.1-2,2.4c0.9,1.2,1.7,2.5,2.6,3.7L224,68.9z M221.7,61.9c-0.5-0.5-1.2-0.5-1.8-0.5
			c-0.3,0-0.5,0-0.8,0c0,0.3,0,0.6,0,0.9v1c0,0.3,0,0.6,0,1c0.2,0,0.3,0,0.5,0c1,0,2.4-0.2,2.4-1.5C222.1,62.5,222,62.1,221.7,61.9z
			"/>
		<path d="M233.9,62.6v1.6c0,0.6,0,1.2,0,1.8c0,2.1-1,3.2-3.2,3.2c-1.4,0-2.8-0.5-3.2-2c-0.1-0.4-0.1-0.9-0.1-1.3c0-1.8,0-3.5,0-5.2
			l0.1-0.1c0.5,0,0.9,0,1.4,0l0.1,0.1c-0.1,1.5,0,3,0,4.6c0,0.9-0.1,2.2,0.8,2.7c0.3,0.2,0.8,0.3,1.2,0.3c0.5,0,1-0.1,1.3-0.4
			c0.7-0.6,0.6-1.7,0.6-2.6c0-1.5,0-3-0.1-4.5l0.1-0.1c0.4,0,0.7,0,1.1,0l0.1,0.1C233.9,61.2,233.9,61.9,233.9,62.6z"/>
		<path d="M244.7,68.9c-0.5,0-1,0-1.5,0l-0.1-0.1c-0.7-1.3-1.4-2.5-2.1-3.8l-1.9-3.4l0.1,4.1c0,1,0.1,2,0.1,3l-0.1,0.1
			c-0.4,0-0.8,0-1.2,0l-0.1-0.1c0.1-1.6,0.1-3.2,0.1-4.7c0-1.2,0-2.4-0.1-3.6l0.1-0.1c0.5,0,1,0,1.5,0l0.1,0.1
			c1.3,2.4,2.6,4.7,3.9,7c-0.1-2.3-0.1-4.6-0.2-7l0.1-0.1c0.4,0,0.8,0,1.1,0l0.1,0.1c0,1.8,0,3.5,0,5.3
			C244.8,66.8,244.8,67.8,244.7,68.9L244.7,68.9z"/>
		<path d="M251,69.1c-0.8,0-1.7-0.2-2.4-0.5l0-0.1c0-0.4,0.1-0.7,0.1-1.1l0.1,0c0.6,0.5,1.3,0.7,2.1,0.7c0.9,0,1.8-0.3,1.8-1.4
			c0-1.8-4.1-1.3-4.1-4.1c0-1.6,1.4-2.3,2.9-2.3c0.8,0,1.4,0.1,2.1,0.4l0.1,0.1c0,0.3-0.1,0.7-0.1,1.1l-0.1,0.1
			c-0.6-0.4-1.2-0.6-2-0.6c-0.7,0-1.6,0.3-1.6,1.2c0,1.8,4.2,1.2,4.2,4.1C254.1,68.3,252.6,69.1,251,69.1z"/>
		<path d="M266.5,64.4c-0.2,1.1-0.5,2.2-0.7,3.2c-0.1,0.4-0.2,0.8-0.3,1.2l-0.1,0.1c-0.6,0-1.2,0-1.7,0l-0.1-0.1
			c-0.1-0.8-0.3-1.6-0.4-2.4l-1-5.2c-0.5,2.5-1,5-1.5,7.6l-0.1,0.1c-0.6,0-1.2,0-1.7,0l-0.1-0.1c-0.3-1.4-0.6-2.8-0.9-4.2
			c-0.3-1.4-0.6-2.8-0.9-4.1l0.1-0.1c0.5,0,0.9,0,1.4,0l0.1,0.1c0.4,2.5,0.9,5.1,1.4,7.6c0.5-2.5,1-5,1.4-7.5l0.1-0.1
			c0.6,0,1.3,0,1.9,0l0.1,0.1c0.1,0.9,0.3,1.7,0.4,2.6l0.9,5l0.9-4.7c0.2-0.9,0.4-1.9,0.5-2.8l0.1-0.1c0.4,0,0.8,0,1.2,0l0.1,0.1
			C267.1,61.8,266.8,63.1,266.5,64.4z"/>
		<path d="M272.2,68.9c-0.4,0-0.9,0-1.3,0l-0.1-0.1c0-0.8,0.1-1.7,0.1-2.5V65c0-1.5,0-3-0.1-4.5l0.1-0.1c0.4,0,0.9,0,1.3,0l0.1,0.1
			c0,1.3-0.1,2.5-0.1,3.8C272.2,65.8,272.2,67.3,272.2,68.9L272.2,68.9z"/>
		<path d="M282.6,68.5L282.6,68.5c-0.8,0.4-1.5,0.6-2.3,0.6c-2.7,0-4.2-1.8-4.2-4.4c0-1.8,0.8-3.6,2.6-4.2c0.5-0.2,1.1-0.2,1.6-0.2
			c0.8,0,1.5,0.1,2.2,0.4l0,0.1c0,0.4-0.1,0.7-0.1,1.1l-0.1,0c-0.6-0.4-1.2-0.5-1.9-0.5c-2,0-3,1.5-3,3.3c0,1.9,0.9,3.3,2.9,3.3
			c0.9,0,1.5-0.3,2.2-0.7l0.1,0C282.7,67.7,282.7,68.1,282.6,68.5z"/>
		<path d="M292.6,68.9c-0.5,0-1,0-1.5,0l-0.1-0.1c-1.1-1.5-2.1-2.9-3.2-4.4c0,1.4,0,2.9,0.1,4.3l-0.1,0.1c-0.4,0-0.9,0-1.3,0
			l-0.1-0.1c0.1-1.8,0-3.6,0-5.4c0-1,0-1.9-0.1-2.9l0.1-0.1c0.4,0,0.9,0,1.3,0l0.1,0.1c0,1.3-0.1,2.6-0.1,3.8c0.5-0.6,1-1.3,1.6-1.9
			c0.3-0.4,0.6-0.8,0.9-1.2c0.1-0.2,0.4-0.5,0.5-0.7c0,0,0.1,0,0.1-0.1c0.5,0,0.9,0,1.4,0l0.1,0.1c-1,1.2-2.1,2.5-3.1,3.7
			c1,1.3,2,2.7,3.1,4c0.2,0.2,0.3,0.4,0.5,0.6L292.6,68.9z"/>
	</g>
</g>
</svg>
