<?xml version="1.0" encoding="utf-8"?>
<!-- Generator: Adobe Illustrator 22.1.0, SVG Export Plug-In . SVG Version: 6.00 Build 0)  -->
<svg version="1.1" id="Layer_1" xmlns="http://www.w3.org/2000/svg" xmlns:xlink="http://www.w3.org/1999/xlink" x="0px" y="0px"
	 viewBox="0 0 595.2 140.1" style="enable-background:new 0 0 595.2 140.1;" xml:space="preserve">
<style type="text/css">
	.st0{fill:#FFFFFF;}
	.st1{fill:#E31837;}
</style>
<path class="st0" d="M6.2,5.1l0,75.7c0.3,12.7,4.4,23.6,12.3,32.4c14,15.8,35.2,19.7,37.6,20.1c0.2,0,0.3,0,0.3,0.1l0.5,0.1l0.5-0.1
	c0.9-0.1,23.4-3.6,38-20.1c3.3-3.7,6-7.9,8-12.4c2.7-6,4.1-12.8,4.2-20V5.1H6.2z"/>
<path class="st1" d="M72.1,10.6H64l-0.9,22.2c0.2,0,0.5,0.1,0.7,0.1L72.1,10.6z"/>
<polygon class="st1" points="85.2,39.1 102.2,26.7 102.2,11.7 82.2,39.1 "/>
<path class="st1" d="M75.8,38.1l25.4-27.4H87.7l-12.5,27C75.4,37.8,75.6,38,75.8,38.1z"/>
<path class="st1" d="M70.1,34.9l14.9-24.3h-9.8l-5.8,24C69.6,34.8,69.8,34.8,70.1,34.9z"/>
<polygon class="st1" points="102.2,39.1 102.2,30.4 92.8,39.1 "/>
<path class="st1" d="M56.9,32.3c0.1,0,0.3,0,0.4,0l3.4-21.7h-7.6l3.4,21.7C56.7,32.3,56.8,32.3,56.9,32.3z"/>
<path class="st1" d="M50.9,32.8L50,10.6h-8.1L50.1,33C50.4,32.9,50.6,32.9,50.9,32.8z"/>
<polygon class="st1" points="31.7,39.1 11.8,11.7 11.8,26.7 28.7,39.1 "/>
<path class="st1" d="M38.8,37.7l-12.5-27H12.8l25.4,27.4C38.4,38,38.6,37.8,38.8,37.7z"/>
<path class="st1" d="M44.6,34.7l-5.8-24H29l14.9,24.3C44.1,34.8,44.4,34.8,44.6,34.7z"/>
<polygon class="st1" points="11.8,30.4 11.8,39.1 21.1,39.1 "/>
<path d="M6.2,5.1l0,75.7c0.3,12.7,4.4,23.6,12.3,32.4c14,15.8,35.2,19.7,37.6,20.1c0.2,0,0.3,0,0.3,0.1l0.5,0.1l0.5-0.1
	c0.9-0.1,23.4-3.6,38-20.1c3.3-3.7,6-7.9,8-12.4c2.7-6,4.1-12.8,4.2-20V5.1H6.2z M105.1,80.8c-0.2,6.9-1.5,13.3-4,19
	c-1.9,4.3-4.4,8.2-7.6,11.8c-14.1,15.9-35.5,19.1-36.4,19.3l-0.1,0l-0.1,0c0,0-0.1,0-0.3,0c-2.3-0.4-22.7-4.1-36.1-19.2
	C13,103.2,9.1,92.8,8.8,80.8V7.7h96.2V80.8z"/>
<polygon class="st1" points="29.9,72.6 29.9,75.3 32.6,75.3 32.6,72.8 32.5,72.6 "/>
<path class="st1" d="M24.8,70.7l0,0.2h7.7V62l-0.3,0.1c-0.5,0.2-1.1,0.3-1.7,0.4c-0.1,0-0.2,0-0.3,0c-0.1,0-0.1,0-0.1,0
	c-1.3,0-2.6-0.3-3.8-0.8c-0.1-0.1-0.2-0.1-0.4-0.2c-0.4-0.2-0.8-0.3-1.3-0.3c-1.8,0-3.2,1.4-3.2,3.2c0,1.1,0.2,1.4,1.5,2.9
	C23.8,68.3,24.5,69.4,24.8,70.7z"/>
<rect x="39.6" y="72.6" class="st1" width="2.7" height="2.7"/>
<path class="st1" d="M11.8,80.9c0.3,11.3,3.9,21,10.9,28.9c11.1,12.5,27.5,16.8,32.8,17.9V42H11.8V80.9z M25.5,91h-4.3v-0.3l0.8-0.1
	c0.6-0.1,0.6-0.2,0.6-1.5v-3.3c0-1.5-0.1-1.6-0.3-1.6c-0.2,0-0.3,0-0.4,0.1L21,84.3L20.9,84c0.5-0.2,2.8-1,3-1.1l0.2,0.1v6
	c0,1.4,0,1.5,0.6,1.5l0.8,0.1V91z M45,79.4v0.8H22.2v-0.8H45z M22.2,78.6v-0.8H45v0.8H22.2z M30.7,87.9c-0.6,1.5-0.8,1.6-1.2,3.4
	l-0.1,0.1c-0.6-0.3-0.9-0.5-1.3-0.9c0.1-0.9,1.7-2.6,2.8-4.3c0.6-0.9,0.7-1.4,0.8-1.9h-2.4c-1.4,0-1.3,0-1.7,1l-0.3-0.1
	c0.1-0.7,0.2-1.4,0.6-2.1h5l0.1,0.1C32.6,84.6,32,85.2,30.7,87.9z M36.8,91.2c-1.5,0-2.8-1.1-2.8-3.4c0-3.4,2.2-4.9,4.3-4.9
	c0.6,0,1,0.2,1.2,0.2l-0.1,0.4c-0.2-0.1-0.4-0.1-0.8-0.1c-1.7,0-3,1.4-3,4.2c0,1.8,0.5,3.1,1.6,3.1c0.8,0,1.1-0.9,1.1-1.6
	c0-1.2-0.7-2.3-1.7-2.3c-0.1,0-0.2,0-0.3,0l-0.1-0.2c0.3-0.2,0.7-0.5,1.4-0.5c1,0,2,0.9,2,2.1C39.6,90.2,38.3,91.2,36.8,91.2z
	 M43.7,91.2c-1.5,0-2.8-1.1-2.8-3.4c0-3.4,2.2-4.9,4.3-4.9c0.6,0,1,0.2,1.2,0.2l-0.1,0.4c-0.2-0.1-0.4-0.1-0.8-0.1
	c-1.7,0-3,1.4-3,4.2c0,1.8,0.5,3.1,1.6,3.1c0.8,0,1.1-0.9,1.1-1.6c0-1.2-0.7-2.3-1.7-2.3c-0.1,0-0.2,0-0.3,0l-0.1-0.2
	c0.3-0.2,0.7-0.5,1.4-0.5c1,0,2,0.9,2,2.1C46.5,90.2,45.2,91.2,43.7,91.2z M33.6,53.4c1.1,0,2,0.9,2,2c0,1.1-0.9,2-2,2
	c-1.1,0-2-0.9-2-2C31.6,54.3,32.5,53.4,33.6,53.4z M24.6,58.8c0.8,0,1.6,0.2,2.4,0.5c0.1,0.1,0.2,0.1,0.3,0.2
	c0.9,0.4,1.8,0.6,2.8,0.6l0.1,0c0.1,0,0.2,0,0.2,0c1.1-0.1,2-0.7,2.6-1.7h1.3c0.5,1,1.5,1.6,2.6,1.7c0.1,0,0.2,0,0.3,0l0.1,0
	c0.9,0,1.8-0.2,2.6-0.5c0.2-0.1,0.4-0.2,0.6-0.3c0.7-0.3,1.4-0.4,2.2-0.4c3.1,0,5.7,2.5,5.7,5.7c0,1.4-0.8,3-2.1,4.4
	c0,0-0.1,0.1-0.1,0.1c-0.8,0.9-1.3,2-1.5,3.1c0,0.2-0.1,0.4-0.1,0.6l0,0.7c0,0.7,0.2,1.4,0.5,2v1.4H22.2v-1.3
	c0.3-0.8,0.5-1.6,0.5-2.5c0-0.3,0-0.6-0.1-0.9C22.5,71,22,69.9,21.2,69c0,0-0.1-0.1-0.1-0.1c-1.4-1.4-2.1-3-2.1-4.4
	C19,61.3,21.5,58.8,24.6,58.8z"/>
<rect x="25.1" y="72.6" class="st1" width="2.7" height="2.7"/>
<path class="st1" d="M42.4,70.7c0.4-1.3,1-2.4,1.9-3.4c0.2-0.2,1.6-1.9,1.6-2.9c0-1.8-1.4-3.2-3.2-3.2c-0.4,0-0.8,0.1-1.2,0.2
	c-0.1,0.1-0.2,0.1-0.4,0.2l-0.3,0.1c-1.1,0.5-2.3,0.7-3.6,0.7c0,0-0.1,0-0.2,0c-0.1,0-0.2,0-0.3,0c-0.6,0-1.1-0.2-1.7-0.4L34.7,62
	v8.9h7.6L42.4,70.7z"/>
<rect x="34.7" y="72.6" class="st1" width="2.7" height="2.7"/>
<path class="st1" d="M72.5,75.7c0.6,0,1-0.1,1.4-0.2c0.4-0.1,0.8-0.2,1.3-0.2c0.8,0,1.6,0.2,2.4,0.5v-1c-0.8-0.3-1.6-0.4-2.4-0.4
	c-0.6,0-1,0.1-1.4,0.2c-0.4,0.1-0.7,0.2-1.2,0.2c-0.7,0.1-1.5,0-2.2-0.2v1C71,75.7,71.8,75.8,72.5,75.7z"/>
<path class="st1" d="M72.5,73.1c0.6,0,1-0.1,1.4-0.2c0.4-0.1,0.8-0.2,1.3-0.2c0.8,0,1.6,0.2,2.4,0.5v-1c-0.8-0.3-1.6-0.4-2.4-0.4
	c-0.6,0-1,0.1-1.4,0.2c-0.4,0.1-0.7,0.2-1.2,0.2c-0.7,0.1-1.5,0-2.2-0.2v1C71,73.1,71.8,73.2,72.5,73.1z"/>
<path class="st1" d="M72.5,70.6c0.6,0,1-0.1,1.4-0.2c0.4-0.1,0.8-0.2,1.3-0.2c0.8,0,1.6,0.2,2.4,0.5v-1c-0.8-0.3-1.6-0.5-2.4-0.4
	c-0.6,0-1,0.1-1.4,0.2c-0.4,0.1-0.7,0.2-1.2,0.2c-0.7,0.1-1.5,0-2.2-0.2v1C71,70.6,71.8,70.6,72.5,70.6z"/>
<path class="st1" d="M72.5,65.4c0.6,0,1-0.1,1.4-0.2c0.4-0.1,0.8-0.2,1.3-0.2c0.8,0,1.6,0.2,2.4,0.5v-1c-0.8-0.3-1.6-0.5-2.4-0.4
	c-0.6,0-1,0.1-1.4,0.2c-0.4,0.1-0.7,0.2-1.2,0.2c-0.7,0.1-1.5,0-2.2-0.2v1C71,65.4,71.8,65.4,72.5,65.4z"/>
<path class="st1" d="M72.5,68c0.6,0,1-0.1,1.4-0.2c0.4-0.1,0.8-0.2,1.3-0.2c0.8,0,1.6,0.2,2.4,0.5v-1c-0.8-0.3-1.6-0.5-2.4-0.4
	c-0.6,0-1,0.1-1.4,0.2C73.4,66.9,73,67,72.5,67c-0.7,0.1-1.5,0-2.2-0.2v1C71,68,71.8,68,72.5,68z"/>
<path class="st1" d="M72.5,62.8c0.6,0,1-0.1,1.4-0.2c0.4-0.1,0.8-0.2,1.3-0.2c0.8,0,1.6,0.2,2.4,0.5v-1c-0.8-0.3-1.6-0.4-2.4-0.4
	c-0.6,0-1,0.1-1.4,0.2c-0.4,0.1-0.7,0.2-1.2,0.2c-0.7,0.1-1.5,0-2.2-0.2v1C71,62.8,71.8,62.8,72.5,62.8z"/>
<path class="st1" d="M72.8,79.3c2.4-0.5,4.5-0.2,6.2,0.8v-0.8l-0.2-0.1c-0.4-0.3-1.5-0.9-3.6-1c-0.1,0-0.1,0-0.2,0
	c-0.2,0-0.3,0-0.5,0c-0.5,0-1,0.1-1.6,0.2c-1.4,0.3-3,0.2-4.9-0.3L67.7,78v-3.4V62.2v-0.7v-0.8v-0.1c-0.3-0.1-0.6-0.1-0.8-0.2v0.1
	v0.8v2.3v9.8v5.4C69.2,79.4,71.2,79.6,72.8,79.3z"/>
<path class="st1" d="M72.8,81c2.4-0.5,4.5-0.2,6.2,0.8V81l-0.1-0.1c0,0-0.1,0-0.1-0.1c-1.6-0.9-3.5-1.2-5.8-0.8
	c-1.8,0.3-4,0.1-6.6-0.7l-0.3-0.1v-7.9v-5.8V61c-0.3-0.1-0.5-0.2-0.8-0.3v19.1C68.3,81,70.9,81.3,72.8,81z"/>
<path class="st1" d="M86.7,72.9c0.4,0.1,0.8,0.2,1.4,0.2c0.8,0.1,1.5,0,2.3-0.1v-1c-0.7,0.2-1.5,0.2-2.2,0.2c-0.5,0-0.9-0.1-1.2-0.2
	c-0.4-0.1-0.9-0.2-1.4-0.2c-0.8,0-1.6,0.1-2.4,0.4v1c0.8-0.3,1.6-0.5,2.4-0.5C86,72.8,86.3,72.8,86.7,72.9z"/>
<path class="st1" d="M87.8,79.3c1.6,0.3,3.6,0.1,5.9-0.6v-5.4v-9.8v-2.3v-0.8v-0.1c-0.3,0.1-0.6,0.2-0.8,0.2v0.1v0.8v0.7v12.4V78
	l-0.3,0.1c-1.9,0.4-3.5,0.5-4.9,0.3c-0.5-0.1-1.1-0.2-1.6-0.2c-0.2,0-0.3,0-0.5,0c-0.1,0-0.1,0-0.2,0c-2,0-3.1,0.7-3.6,1l-0.2,0.1
	V80C83.3,79.1,85.4,78.8,87.8,79.3z"/>
<path class="st1" d="M86.7,70.3c0.4,0.1,0.8,0.2,1.4,0.2c0.8,0.1,1.5,0,2.3-0.1v-1c-0.7,0.2-1.5,0.2-2.2,0.2c-0.5,0-0.9-0.1-1.2-0.2
	c-0.4-0.1-0.9-0.2-1.4-0.2c-0.8,0-1.6,0.1-2.4,0.4v1c0.8-0.3,1.6-0.5,2.4-0.5C86,70.2,86.3,70.3,86.7,70.3z"/>
<path class="st1" d="M58.4,127.6c5.3-1.1,21.7-5.4,32.8-17.9c7-7.8,10.6-17.6,10.9-28.9V42H58.4V127.6z M73.9,88.9L72.3,88l-1.7,0.9
	l0.3-1.9l-1.4-1.3l1.9-0.3l0.8-1.7l0.8,1.7l1.9,0.3L73.6,87L73.9,88.9z M90.1,88.9L88.4,88l-1.7,0.9L87,87l-1.4-1.3l1.9-0.3l0.8-1.7
	l0.8,1.7l1.9,0.3L89.8,87L90.1,88.9z M80.8,76.5V60.4c0.4-0.3,0.9-0.6,1.4-0.8c0.7-0.3,1.8-0.7,3.4-0.7c0.7,0,1.5,0.1,2.2,0.2
	c0.3,0.1,0.6,0.1,1,0.1c1.1,0.1,2.3-0.1,3.6-0.4l0.5-0.1v1c0.4-0.1,0.7-0.2,1.1-0.3l0.5-0.2v1c0.4-0.1,0.7-0.2,1.1-0.4l0.6-0.2v20.8
	l-0.3,0.1c-3.3,1.2-6.1,1.7-8.2,1.3c-2.3-0.4-4.2-0.2-5.7,0.7h-1.2V76.5z M81.2,87.7L83,88l-1.4,1.3l0.3,1.9l-1.7-0.9l-1.7,0.9
	l0.3-1.9L77.6,88l1.9-0.3l0.8-1.7L81.2,87.7z M64.5,59.6l0.6,0.2c0.4,0.1,0.7,0.3,1.1,0.4v-1l0.5,0.2c0.4,0.1,0.8,0.2,1.1,0.3v-1
	l0.5,0.1c1.3,0.3,2.6,0.4,3.6,0.4c0.3,0,0.7-0.1,1-0.1c0.8-0.1,1.5-0.2,2.2-0.2c1.6,0,2.7,0.4,3.4,0.7c0.5,0.2,1,0.5,1.4,0.8v16.1v6
	h-1.2c-1.5-0.9-3.5-1.1-5.7-0.7c-2.2,0.4-4.9,0-8.2-1.3l-0.3-0.1V59.6z"/>
<path class="st1" d="M87.8,81c2,0.4,4.5,0,7.5-1.1V60.8c-0.3,0.1-0.5,0.2-0.8,0.3v4.5v5.8v7.9l-0.3,0.1c-2.6,0.8-4.8,1-6.6,0.7
	c-2.3-0.4-4.3-0.2-5.8,0.8c0,0-0.1,0.1-0.1,0.1L81.6,81v0.8C83.3,80.8,85.4,80.5,87.8,81z"/>
<path class="st1" d="M86.7,75.5c0.4,0.1,0.8,0.2,1.4,0.2c0.8,0.1,1.5,0,2.3-0.1v-1c-0.7,0.2-1.5,0.2-2.2,0.2c-0.5,0-0.9-0.1-1.2-0.2
	c-0.4-0.1-0.9-0.2-1.4-0.2c-0.8,0-1.6,0.1-2.4,0.4v1c0.8-0.3,1.6-0.5,2.4-0.5C86,75.4,86.3,75.4,86.7,75.5z"/>
<path class="st1" d="M86.7,65.2c0.4,0.1,0.8,0.2,1.4,0.2c0.8,0.1,1.5,0,2.3-0.1v-1c-0.7,0.2-1.5,0.2-2.2,0.2c-0.5,0-0.9-0.1-1.2-0.2
	c-0.4-0.1-0.9-0.2-1.4-0.2c-0.8,0-1.6,0.1-2.4,0.4v1c0.8-0.3,1.6-0.5,2.4-0.5C86,65,86.3,65.1,86.7,65.2z"/>
<path class="st1" d="M86.7,62.6c0.4,0.1,0.8,0.2,1.4,0.2c0.8,0.1,1.5,0,2.3-0.1v-1c-0.7,0.2-1.5,0.2-2.2,0.2c-0.5,0-0.9-0.1-1.2-0.2
	c-0.4-0.1-0.9-0.2-1.4-0.2c-0.8,0-1.6,0.1-2.4,0.4v1c0.8-0.3,1.6-0.5,2.4-0.5C86,62.4,86.3,62.5,86.7,62.6z"/>
<path class="st1" d="M86.7,67.8c0.4,0.1,0.8,0.2,1.4,0.2c0.8,0.1,1.5,0,2.3-0.1v-1c-0.7,0.2-1.5,0.2-2.2,0.2c-0.5,0-0.9-0.1-1.2-0.2
	c-0.4-0.1-0.9-0.2-1.4-0.2c-0.8,0-1.6,0.1-2.4,0.4v1c0.8-0.3,1.6-0.5,2.4-0.5C86,67.6,86.3,67.7,86.7,67.8z"/>
<g>
	<path class="st1" d="M235.4,89.7l2.4-0.7v-41c0-9.9,0-10.3,3.2-10.7l2.9-0.2v-1.7h-19.8V37l2.9,0.2c3.2,0.3,3.2,0.7,3.2,10.7v33
		c-1.2,1.5-6.3,6.5-14.7,6.5c-12.6,0-14.5-7.7-14.5-19.4V47.9c0-9.9,0-10.3,3.2-10.7l2.9-0.2v-1.7h-19.8V37l2.9,0.2
		c3.2,0.3,3.2,0.7,3.2,10.7v21.5c0,11.1,1.4,20.7,18.2,20.7c10.8,0,17.6-5.1,18.7-5.1c1.2,0,1.9,1.1,3,2.3L235.4,89.7z"/>
	<path class="st1" d="M257.2,88.9h22.5v-1.8l-2.9-0.2c-4.6-0.3-4.6-0.7-4.6-10.7V37.6h4.2c11.5,0,11.6,1.2,13.4,10.7h1.9
		c0-0.3-0.4-11.1-0.7-12.9h-45.3c-0.3,1.8-0.7,12.6-0.7,12.9h2c1.8-9.4,1.9-10.7,13.4-10.7h4.2v38.7c0,9.9,0,10.3-4.5,10.7l-3,0.2
		V88.9z"/>
	<path class="st1" d="M341.8,78.2c0-7.9,0-8.3,1.5-8.6l2.9-0.2v-1.7h-20.7v1.7l2.9,0.2c5.7,0.3,5.7,0.7,5.7,10.7v6.1
		c-2.8,0.7-6.6,1.1-9.5,1.1c-15.9,0-23-12.9-23-26.7c0-15.2,8.4-24,21.7-24c13.9,0,15,9.9,15.8,13.2l2.2-0.5c-0.4-4-0.8-8.6-1.3-12
		c-2.1-1.3-8.3-3.3-16.6-3.3c-12.8,0-30.3,6.5-30.3,28.2c0,20.7,14.6,27.9,31,27.9c8.7,0,14.9-2.3,17.8-3.2
		C342,86.9,341.8,80.7,341.8,78.2"/>
	<path class="st1" d="M351.3,88.9h37.2c1.1-4.4,2-8.5,2.7-13.5l-2-0.3c-1.6,6.7-2.4,11.5-15.4,11.5c-2.9,0-5.9-0.5-8.8-1.1V62.2h7.2
		c6.3,0,7.8,0.1,8.3,3.4l0.4,2.8h2.1V53.7h-2.1l-0.4,2.8c-0.5,3.3-1.9,3.4-8.3,3.4H365V37.6h6.7c11.5,0,11.6,1.2,13.4,9.9l2-0.3
		c0-0.7-0.4-10.1-0.7-11.9h-35V37l2.9,0.2c3.2,0.3,3.2,0.7,3.2,10.7v28.3c0,9.9,0,10.3-3.2,10.7l-2.9,0.2V88.9z"/>
	<path class="st1" d="M411.3,38.6c1.6-0.3,3.3-0.7,5-0.7c6.3,0,12.6,2.9,12.6,12.4c0,9.2-6.2,12.8-13,12.8h-4.6V38.6z M397.6,88.9
		h19.7v-1.8l-2.9-0.2c-3.1-0.3-3.1-0.7-3.1-10.7V65.5h3c1.7,0,3.7,0,5,1.1c1.1,0.9,2.9,4,5,8l3.3,6.3c2.4,4.5,6.2,8.1,11.5,8.1h6.3
		v-1.8c-1.8,0-3.3-0.3-4.1-0.8c-2-1.1-5.6-5.9-9-12.1c-2.2-3.9-4.9-9.1-6.1-11.4c4.5-2.1,11.2-6.6,11.2-14.2
		c0-12.4-10.9-13.5-18.6-13.5h-21.2V37l2.9,0.2c3.2,0.3,3.2,0.7,3.2,10.7v28.3c0,9.9,0,10.3-3.2,10.7l-2.9,0.2V88.9z"/>
	<path class="st1" d="M463.1,55.6c-4.4-2.6-7.9-5.2-7.9-10c0-5.4,4.1-8.9,8.9-8.9c9.2,0,10.5,7.1,11.3,11.1h2
		c-0.2-2.4-0.4-8.3-0.8-11.2c-2.1-1.3-6.2-2.6-11.2-2.6c-8.6,0-16.9,4.1-16.9,14.1c0,6.1,4.3,11.1,8.9,13.7l5.2,2.8
		c6.3,2.8,11.3,6.9,11.3,12.8c0,6.3-4.1,10-9.8,10c-11.1,0-14.1-9.7-15-15.5l-2.6,0.7c0.9,5.6,1.8,11.2,2.6,14.3
		c2.5,1.5,6.4,3.3,12.8,3.3c8.6,0,18.8-4.2,18.8-15.2c0-9.8-6.7-13.2-13.1-16.8L463.1,55.6z"/>
	<path class="st1" d="M147.9,58c2.5,0.1,5.2-0.1,7.7-0.1c9.6,0,15.5-5.2,15.5-14.8c0-10.5-6-16.9-16.6-16.9c-2.2,0-4.4,0.4-6.5,0.9
		L147.9,58z M168.6,58c0.9,5.2,8.1,18.4,10.9,23.3c6.2,11.5,22.2,34.7,34.1,34l1.4,0l0,1.9l-2.1,0.1c-16.9,0.7-31.9-18.1-40.7-33.2
		c-3.6-6.1-7-13.2-10.1-19.6c-0.8-1.6-1.7-2.7-2.8-3.4c-1.7-0.9-3.8-0.9-5.6-0.9c-1,0-4.1,0-5.7,0l0,13.5c0,2.5-0.2,8.7,0.5,11.1
		c0.5,1.9,1.7,2.2,3.6,2.4l3.3,0.3v1.5h-23v-1.5l3.3-0.3c2-0.2,3.1-0.4,3.7-2.4c0.7-2.4,0.5-8.6,0.5-11.1V38.8
		c0-2.5,0.2-8.7-0.5-11.1c-0.5-1.9-1.7-2.2-3.7-2.4l-3.3-0.3v-1.5h15.7c13.8,0,32.5-2,32.5,17.5c0,7.9-5.4,13-11.9,16.2
		C168.6,57.6,168.6,58,168.6,58"/>
</g>
<g>
	<path d="M245.3,121.4v2.5c0,0.9,0,1.8,0,2.7c0,3.3-1.5,5-4.9,5c-2.2,0-4.3-0.8-4.9-3.1c-0.2-0.7-0.2-1.4-0.2-2.1
		c0-2.7,0-5.5-0.1-8.2l0.1-0.1c0.7,0,1.4,0,2.1-0.1l0.1,0.1c-0.1,2.4-0.1,4.8-0.1,7.1c0,1.4-0.2,3.4,1.2,4.3
		c0.5,0.3,1.2,0.5,1.8,0.5c0.8,0,1.5-0.2,2.1-0.7c1.1-1,1-2.7,1-4.1c0-2.3,0-4.7-0.1-7l0.1-0.1c0.6,0,1.1,0,1.7-0.1l0.1,0.1
		C245.3,119.2,245.3,120.3,245.3,121.4z"/>
	<path d="M262.3,131.3c-0.8,0-1.5,0-2.3,0.1l-0.1-0.1c-1.1-2-2.2-3.9-3.3-5.9l-3-5.3l0.2,6.4c0,1.6,0.1,3.1,0.2,4.7l-0.1,0.1
		c-0.6,0-1.2,0-1.8,0.1l-0.1-0.1c0.1-2.5,0.1-4.9,0.1-7.4c0-1.8,0-3.8-0.1-5.6l0.1-0.1c0.8,0,1.6,0,2.4-0.1l0.2,0.1
		c2,3.7,4.1,7.3,6.1,10.9c-0.1-3.6-0.1-7.3-0.3-10.9l0.1-0.1c0.6,0,1.2,0,1.8-0.1l0.1,0.1c0,2.8-0.1,5.5-0.1,8.2
		c0,1.6,0,3.2,0.1,4.8L262.3,131.3z"/>
	<path d="M271.1,131.3c-0.7,0-1.4,0-2.1,0.1l-0.1-0.1c0.1-1.3,0.1-2.6,0.1-3.9v-2.1c0-2.4,0-4.7-0.1-7.1l0.1-0.1
		c0.7,0,1.4,0,2.1-0.1l0.1,0.1c0,2-0.1,4-0.1,6c0,2.4,0,4.7,0.2,7.1L271.1,131.3z"/>
	<path d="M285.2,124.7c-0.7,2.2-1.4,4.3-2,6.5l-0.1,0.1c-0.9,0-1.8,0-2.7,0.1l-0.1-0.1c-0.2-0.5-0.3-1.1-0.5-1.6c-0.3-1-0.6-2-0.9-3
		c-0.8-2.8-1.7-5.6-2.6-8.4l0.1-0.1c0.7,0,1.4,0,2.2-0.1l0.1,0.1c1,4,2.1,7.9,3.2,11.8l1.7-5.9c0.6-1.9,1-3.9,1.6-5.9l0.1-0.1
		c0.6,0,1.3,0,1.9-0.1l0.1,0.1C286.5,120.3,285.9,122.5,285.2,124.7z"/>
	<path d="M300.4,131.2l-0.1,0.1c-2.6,0-5.2,0-7.8,0.1l-0.1-0.1c0.1-2.7,0.1-5.4,0.1-8.1c0-1.6,0-3.3-0.1-4.9l0.1-0.1
		c2.6,0,5.2,0,7.9-0.1l0.1,0.1c-0.1,0.5-0.1,1-0.1,1.5l-0.1,0.1c-1.9-0.1-3.7-0.1-5.6-0.1c0,1.3,0,2.7,0,4h1.9c1.1,0,2.2,0,3.3-0.1
		l0.1,0.1c-0.1,0.5-0.1,1-0.1,1.5l-0.1,0.1c-1.4,0-2.7-0.1-4.1-0.1h-1c0,0.9,0,1.8,0,2.6c0,0.6,0,1.2,0,1.8h1c1.6,0,3.2,0,4.8-0.1
		l0.1,0.1C300.4,130.2,300.4,130.7,300.4,131.2z"/>
	<path d="M316,131.3c-0.8,0-1.5,0-2.3,0.1l-0.1-0.1c-0.6-1.1-1.3-2.1-1.9-3.1c-0.6-0.9-1.1-1.7-1.7-2.6c-0.5,0-0.9,0-1.4,0
		c0,1.8,0.1,3.7,0.1,5.5l-0.1,0.1c-0.7,0-1.4,0-2.1,0.1l-0.1-0.1c0.1-1.8,0.1-3.7,0.1-5.5c0-2.5,0-5-0.2-7.5l0.1-0.1
		c0.8,0,1.6,0,2.3,0h1.1c2.6,0,5.3,0.4,5.3,3.6c0,2-1.4,3.2-3.2,3.7c1.4,1.9,2.7,3.9,4.1,5.8L316,131.3z M312.5,120.3
		c-0.7-0.8-1.9-0.8-2.8-0.8c-0.4,0-0.8,0-1.2,0c0,0.5,0,1,0,1.4v1.6c0,0.5,0,1,0,1.5c0.3,0,0.5,0,0.8,0c1.6,0,3.8-0.3,3.8-2.3
		C313.1,121.3,312.9,120.7,312.5,120.3z"/>
	<path d="M324.5,131.6c-1.2,0-2.6-0.3-3.7-0.8l-0.1-0.1c0.1-0.6,0.1-1.1,0.1-1.7l0.2-0.1c1,0.8,2,1.1,3.3,1.1c1.4,0,2.8-0.5,2.8-2.1
		c0-2.9-6.4-2-6.4-6.4c0-2.6,2.2-3.6,4.5-3.6c1.2,0,2.2,0.2,3.4,0.6l0.1,0.1c-0.1,0.5-0.1,1.1-0.1,1.6l-0.2,0.1
		c-1-0.6-1.9-0.9-3.1-0.9c-1.1,0-2.5,0.5-2.5,1.8c0,2.7,6.5,1.9,6.5,6.4C329.4,130.3,326.9,131.6,324.5,131.6z"/>
	<path d="M337.5,131.3c-0.7,0-1.4,0-2.1,0.1l-0.1-0.1c0.1-1.3,0.1-2.6,0.1-3.9v-2.1c0-2.4,0-4.7-0.1-7.1l0.1-0.1
		c0.7,0,1.4,0,2.1-0.1l0.1,0.1c0,2-0.1,4-0.1,6c0,2.4,0,4.7,0.2,7.1L337.5,131.3z"/>
	<path d="M352,119.5l-0.1,0.1c-1.1,0-2.3,0-3.4,0c-0.1,1.8,0,3.6,0,5.5c0,2,0,4,0.1,6.1l-0.1,0.1c-0.7,0-1.4,0-2.2,0.1l-0.1-0.1
		c0.1-2.6,0.1-5.2,0.1-7.9c0-1.2,0-2.5-0.1-3.7c-1.2,0-2.3,0.1-3.5,0.1l-0.1-0.1c0-0.5,0.1-0.9,0.1-1.4l0.1-0.1c3.1,0,6.1,0,9.2-0.1
		l0.1,0.1C352,118.6,352,119.1,352,119.5z"/>
	<path d="M362.7,125.7c0,0.5,0,0.9,0,1.4c0,1.3,0,2.7,0.1,4l-0.1,0.1c-0.7,0-1.4,0-2.1,0l-0.1-0.1c0-1.1,0.1-2.3,0.1-3.4v-1.9
		c-1.3-2.6-2.7-5.1-4.1-7.6l0.1-0.2c0.7,0,1.4-0.1,2.2-0.1l0.1,0.1c0.6,1.1,1.1,2.2,1.6,3.3c0.4,0.9,0.9,1.7,1.3,2.6
		c1-1.9,2-3.9,3-5.8l0.1-0.1c0.6,0,1.2,0,1.8-0.1l0.1,0.2C365.4,120.7,364,123.1,362.7,125.7z"/>
	<path d="M379.7,136v-18.7h1.5V136H379.7z"/>
	<path d="M407.4,131.3c-0.8,0-1.5,0-2.3,0.1l-0.1-0.1c-1.1-2-2.2-3.9-3.3-5.9l-3-5.3l0.2,6.4c0,1.6,0.1,3.1,0.2,4.7l-0.1,0.1
		c-0.6,0-1.2,0-1.8,0.1l-0.1-0.1c0.1-2.5,0.1-4.9,0.1-7.4c0-1.8,0-3.8-0.1-5.6l0.1-0.1c0.8,0,1.6,0,2.4-0.1l0.2,0.1
		c2,3.7,4.1,7.3,6.1,10.9c-0.1-3.6-0.1-7.3-0.3-10.9l0.1-0.1c0.6,0,1.2,0,1.8-0.1l0.1,0.1c0,2.8-0.1,5.5-0.1,8.2
		c0,1.6,0,3.2,0.1,4.8L407.4,131.3z"/>
	<path d="M422,131.2l-0.1,0.1c-2.6,0-5.2,0-7.8,0.1l-0.1-0.1c0.1-2.7,0.1-5.4,0.1-8.1c0-1.6,0-3.3-0.1-4.9l0.1-0.1
		c2.6,0,5.2,0,7.9-0.1l0.1,0.1c-0.1,0.5-0.1,1-0.1,1.5l-0.1,0.1c-1.9-0.1-3.7-0.1-5.6-0.1c0,1.3,0,2.7,0,4h1.9c1.1,0,2.2,0,3.3-0.1
		l0.1,0.1c-0.1,0.5-0.1,1-0.1,1.5l-0.1,0.1c-1.4,0-2.7-0.1-4.1-0.1h-1c0,0.9,0,1.8,0,2.6c0,0.6,0,1.2,0,1.8h1c1.6,0,3.2,0,4.8-0.1
		l0.1,0.1C422.1,130.2,422,130.7,422,131.2z"/>
	<path d="M441.5,124.2c-0.4,1.7-0.8,3.4-1.2,5.1c-0.1,0.6-0.3,1.3-0.4,1.9l-0.1,0.1c-0.9,0-1.8,0-2.7,0.1l-0.1-0.1
		c-0.2-1.3-0.4-2.5-0.7-3.8l-1.5-8.1c-0.8,3.9-1.6,7.9-2.4,11.8l-0.1,0.1c-0.9,0-1.8,0-2.7,0.1l-0.1-0.1c-0.4-2.2-0.9-4.4-1.4-6.6
		c-0.5-2.2-1-4.3-1.5-6.4l0.1-0.1c0.7,0,1.4,0,2.1-0.1l0.1,0.1c0.7,4,1.5,7.9,2.2,11.8c0.7-3.9,1.5-7.9,2.2-11.8l0.1-0.1
		c1,0,2,0,3-0.1l0.1,0.1c0.2,1.3,0.4,2.7,0.7,4l1.5,7.9l1.5-7.4c0.3-1.5,0.6-2.9,0.8-4.4l0.1-0.1c0.6,0,1.2,0,1.8-0.1l0.1,0.1
		C442.3,120.1,441.9,122.2,441.5,124.2z"/>
	<path d="M465.9,129.8c-1.2,1.4-3,1.5-4.7,1.5h-0.5l-3.3,0l-0.1-0.1c0.1-0.9,0.1-1.9,0.1-2.8v-7c0-1.1,0-2.2-0.1-3.3l0.1-0.1
		c1.3,0,2.7-0.1,4-0.1c1.4,0,3,0.1,4,1.2c0.5,0.5,0.7,1.2,0.7,1.9c0,1.2-0.7,2.3-1.8,2.8c-0.3,0.2-0.7,0.2-1,0.4
		c2,0.1,3.5,1.1,3.5,3.2C466.8,128.3,466.5,129.2,465.9,129.8z M463.7,120.5c-0.5-0.9-1.6-1-2.5-1c-0.6,0-1.2,0-1.8,0.1v4.2h0.6
		c1.2,0,2.7,0,3.5-1c0.3-0.4,0.4-0.8,0.4-1.3C464,121.1,463.9,120.7,463.7,120.5z M461.3,125.2c-0.6,0-1.2,0-1.9,0.1
		c0,1.5,0,3,0.1,4.5c0.1,0,0.2,0,0.4,0h0.8c1.2,0,2.7,0,3.5-1c0.3-0.4,0.4-0.9,0.4-1.4C464.6,125.6,462.8,125.2,461.3,125.2z"/>
	<path d="M482.4,131.3c-0.8,0-1.5,0-2.3,0.1l-0.1-0.1c-0.6-1.1-1.3-2.1-1.9-3.1c-0.6-0.9-1.1-1.7-1.7-2.6c-0.5,0-0.9,0-1.4,0
		c0,1.8,0.1,3.7,0.1,5.5l-0.1,0.1c-0.7,0-1.4,0-2.1,0.1l-0.1-0.1c0.1-1.8,0.1-3.7,0.1-5.5c0-2.5,0-5-0.2-7.5l0.1-0.1
		c0.8,0,1.6,0,2.3,0h1.1c2.6,0,5.3,0.4,5.3,3.6c0,2-1.4,3.2-3.2,3.7c1.4,1.9,2.7,3.9,4.1,5.8L482.4,131.3z M478.9,120.3
		c-0.7-0.8-1.9-0.8-2.8-0.8c-0.4,0-0.8,0-1.2,0c0,0.5,0,1,0,1.4v1.6c0,0.5,0,1,0,1.5c0.3,0,0.5,0,0.8,0c1.6,0,3.8-0.3,3.8-2.3
		C479.5,121.3,479.3,120.7,478.9,120.3z"/>
	<path d="M497.9,121.4v2.5c0,0.9,0,1.8,0,2.7c0,3.3-1.5,5-4.9,5c-2.2,0-4.3-0.8-4.9-3.1c-0.2-0.7-0.2-1.4-0.2-2.1
		c0-2.7,0-5.5-0.1-8.2l0.1-0.1c0.7,0,1.4,0,2.1-0.1l0.1,0.1c-0.1,2.4-0.1,4.8-0.1,7.1c0,1.4-0.2,3.4,1.2,4.3
		c0.5,0.3,1.2,0.5,1.8,0.5c0.7,0,1.5-0.2,2.1-0.7c1.1-1,1-2.7,1-4.1c0-2.3,0-4.7-0.1-7l0.1-0.1c0.6,0,1.1,0,1.7-0.1l0.1,0.1
		C497.9,119.2,497.9,120.3,497.9,121.4z"/>
	<path d="M514.9,131.3c-0.8,0-1.5,0-2.3,0.1l-0.1-0.1c-1.1-2-2.2-3.9-3.3-5.9l-3-5.3l0.2,6.4c0,1.6,0.1,3.1,0.2,4.7l-0.1,0.1
		c-0.6,0-1.2,0-1.8,0.1l-0.1-0.1c0.1-2.5,0.1-4.9,0.1-7.4c0-1.8,0-3.8-0.1-5.6l0.1-0.1c0.8,0,1.6,0,2.4-0.1l0.2,0.1
		c2,3.7,4.1,7.3,6.1,10.9c-0.1-3.6-0.1-7.3-0.3-10.9l0.1-0.1c0.6,0,1.2,0,1.8-0.1l0.1,0.1c0,2.8-0.1,5.5-0.1,8.2
		c0,1.6,0,3.2,0.1,4.8L514.9,131.3z"/>
	<path d="M524.6,131.6c-1.2,0-2.6-0.3-3.7-0.8l-0.1-0.1c0.1-0.6,0.1-1.1,0.1-1.7l0.2-0.1c1,0.8,2,1.1,3.3,1.1c1.4,0,2.8-0.5,2.8-2.1
		c0-2.9-6.4-2-6.4-6.4c0-2.6,2.2-3.6,4.5-3.6c1.2,0,2.2,0.2,3.4,0.6l0.1,0.1c-0.1,0.5-0.1,1.1-0.1,1.6l-0.2,0.1
		c-1-0.6-1.9-0.9-3.1-0.9c-1.1,0-2.5,0.5-2.5,1.8c0,2.7,6.5,1.9,6.5,6.4C529.5,130.3,527.1,131.6,524.6,131.6z"/>
	<path d="M548.9,124.2c-0.4,1.7-0.8,3.4-1.2,5.1c-0.1,0.6-0.3,1.3-0.4,1.9l-0.1,0.1c-0.9,0-1.8,0-2.7,0.1l-0.1-0.1
		c-0.2-1.3-0.4-2.5-0.7-3.8l-1.5-8.1c-0.8,3.9-1.6,7.9-2.4,11.8l-0.1,0.1c-0.9,0-1.8,0-2.7,0.1l-0.1-0.1c-0.4-2.2-0.9-4.4-1.4-6.6
		c-0.5-2.2-1-4.3-1.5-6.4l0.1-0.1c0.7,0,1.4,0,2.1-0.1l0.1,0.1c0.7,4,1.5,7.9,2.2,11.8c0.7-3.9,1.5-7.9,2.2-11.8l0.1-0.1
		c1,0,2,0,3-0.1l0.1,0.1c0.2,1.3,0.4,2.7,0.7,4l1.5,7.9l1.5-7.4c0.3-1.5,0.6-2.9,0.8-4.4l0.1-0.1c0.6,0,1.2,0,1.8-0.1l0.1,0.1
		C549.7,120.1,549.4,122.2,548.9,124.2z"/>
	<path d="M557.7,131.3c-0.7,0-1.4,0-2.1,0.1l-0.1-0.1c0.1-1.3,0.1-2.6,0.1-3.9v-2.1c0-2.4,0-4.7-0.2-7.1l0.1-0.1
		c0.7,0,1.4,0,2.1-0.1l0.1,0.1c0,2-0.1,4-0.1,6c0,2.4,0,4.7,0.2,7.1L557.7,131.3z"/>
	<path d="M574,130.6l-0.1,0.1c-1.1,0.6-2.2,0.8-3.5,0.8c-4.2,0-6.5-2.9-6.5-6.9c0-2.8,1.3-5.6,4.1-6.5c0.8-0.3,1.7-0.4,2.5-0.4
		c1.2,0,2.3,0.2,3.4,0.6l0.1,0.1c-0.1,0.6-0.1,1.1-0.2,1.7l-0.1,0.1c-1-0.6-1.9-0.8-3-0.8c-3.1,0-4.6,2.3-4.6,5.2
		c0,2.9,1.4,5.2,4.5,5.2c1.4,0,2.3-0.4,3.4-1.1l0.1,0.1C574.1,129.4,574.1,130,574,130.6z"/>
	<path d="M589.6,131.3c-0.8,0-1.6,0-2.4,0.1l-0.2-0.1c-1.6-2.3-3.3-4.6-5.1-6.8c0,2.2,0.1,4.5,0.1,6.7l-0.1,0.1
		c-0.7,0-1.4,0-2.1,0.1l-0.1-0.1c0.1-2.8,0.1-5.7,0.1-8.5c0-1.5,0-3-0.2-4.5l0.1-0.1c0.7,0,1.4,0,2.1-0.1l0.1,0.1
		c-0.1,2-0.1,4-0.1,6c0.8-1,1.6-2,2.4-3c0.5-0.6,1-1.2,1.4-1.8c0.2-0.3,0.6-0.8,0.8-1.1c0,0,0.1-0.1,0.2-0.1c0.7,0,1.4,0,2.1-0.1
		l0.1,0.2c-1.6,1.9-3.2,3.9-4.8,5.8c1.6,2.1,3.1,4.2,4.8,6.2c0.2,0.3,0.5,0.6,0.7,0.9L589.6,131.3z"/>
</g>
</svg>
