<svg xmlns="http://www.w3.org/2000/svg" viewBox="0 0 474.42 137.57"><defs><style>.cls-1{fill:#fff;}.cls-2{fill:#e31837;}.cls-3{fill:#231f20;}</style></defs><title>Asset 1</title><g id="Layer_2" data-name="Layer 2"><g id="Layer_1-2" data-name="Layer 1"><path class="cls-1" d="M0,0V75.72C.28,88.39,4.42,99.3,12.29,108.16c14,15.76,35.24,19.67,37.61,20.07l.33.05.47.07.47-.07c.95-.14,23.36-3.58,38-20.12a47.66,47.66,0,0,0,8-12.43,52.4,52.4,0,0,0,4.25-20V0Z"/><path class="cls-2" d="M65.83,5.51H57.76l-.88,22.21.71.14Z"/><polygon class="cls-2" points="78.99 33.93 95.93 21.62 95.93 6.54 76 33.93 78.99 33.93"/><path class="cls-2" d="M69.55,33,94.91,5.51H81.43l-12.49,27Z"/><path class="cls-2" d="M63.82,29.82,78.71,5.51H68.93l-5.78,24Z"/><polygon class="cls-2" points="95.93 33.93 95.93 25.3 86.58 33.93 95.93 33.93"/><path class="cls-2" d="M50.7,27.16h.42L54.54,5.51H47L50.4,27.16Z"/><path class="cls-2" d="M44.62,27.72,43.74,5.51H35.67l8.24,22.35Z"/><polygon class="cls-2" points="25.49 33.93 5.57 6.54 5.57 21.62 22.51 33.93 25.49 33.93"/><path class="cls-2" d="M32.56,32.55l-12.49-27H6.58L32,33Z"/><path class="cls-2" d="M38.35,29.54l-5.78-24H22.79L37.68,29.82Z"/><polygon class="cls-2" points="5.57 25.3 5.57 33.93 14.91 33.93 5.57 25.3"/><path class="cls-3" d="M0,0V75.72C.28,88.39,4.42,99.3,12.29,108.16c14,15.76,35.24,19.67,37.61,20.07l.33.05.47.07.47-.07c.95-.14,23.36-3.58,38-20.12a47.66,47.66,0,0,0,8-12.43,52.4,52.4,0,0,0,4.25-20V0ZM98.83,75.66a49.78,49.78,0,0,1-4,19,45.11,45.11,0,0,1-7.55,11.76c-14.06,15.87-35.54,19.15-36.45,19.28h-.19l-.28,0c-2.28-.38-22.67-4.13-36.1-19.23C6.77,98.06,2.85,87.7,2.58,75.65V2.58H98.83Z"/><polygon class="cls-2" points="23.66 67.44 23.66 70.17 26.33 70.17 26.33 67.67 26.31 67.44 23.66 67.44"/><path class="cls-2" d="M18.6,65.52l0,.17h7.66V56.84L26,57a5.58,5.58,0,0,1-1.66.36h-.44a9.07,9.07,0,0,1-3.84-.84l-.37-.18A3.2,3.2,0,0,0,18.39,56a3.23,3.23,0,0,0-3.23,3.23c0,1.05.2,1.43,1.53,2.88A8.45,8.45,0,0,1,18.6,65.52Z"/><rect class="cls-2" x="33.33" y="67.44" width="2.67" height="2.73"/><path class="cls-2" d="M5.58,75.73c.26,11.3,3.92,21,10.9,28.85C27.58,117.06,44,121.4,49.27,122.51V36.85H5.58ZM19.26,85.9H15v-.33l.83-.1c.55-.06.55-.18.55-1.53v-3.3c0-1.5-.09-1.63-.34-1.63a2.47,2.47,0,0,0-.43.05l-.83.14-.1-.33c.54-.21,2.79-1,3-1.05l.19.14v6c0,1.35,0,1.46.55,1.53l.83.1Zm19.5-11.61v.81H16v-.81ZM16,73.46v-.81H38.76v.81Zm8.44,9.28a14.56,14.56,0,0,0-1.23,3.43l-.14.09a2.83,2.83,0,0,1-1.26-.91c.14-.88,1.69-2.57,2.78-4.31a5.44,5.44,0,0,0,.81-1.85H23c-1.4,0-1.29,0-1.67,1l-.33-.1A5.23,5.23,0,0,1,21.56,78h5l.11.14C26.37,79.43,25.79,80,24.44,82.75Zm6.1,3.34c-1.5,0-2.78-1.09-2.78-3.39,0-3.39,2.23-4.87,4.26-4.87a3.17,3.17,0,0,1,1.2.23l-.1.35a2.69,2.69,0,0,0-.8-.1c-1.7,0-3,1.4-3,4.23,0,1.79.51,3.08,1.58,3.08.83,0,1.14-.85,1.14-1.64,0-1.2-.69-2.27-1.65-2.27l-.33,0L30,81.51A2.08,2.08,0,0,1,31.38,81a2.06,2.06,0,0,1,2,2.1A2.71,2.71,0,0,1,30.54,86.09Zm6.9,0c-1.5,0-2.78-1.09-2.78-3.39,0-3.39,2.23-4.87,4.26-4.87a3.17,3.17,0,0,1,1.2.23l-.1.35a2.69,2.69,0,0,0-.8-.1c-1.7,0-3,1.4-3,4.23,0,1.79.51,3.08,1.58,3.08.83,0,1.14-.85,1.14-1.64,0-1.2-.69-2.27-1.65-2.27l-.33,0-.05-.23a2,2,0,0,1,3.36,1.58A2.71,2.71,0,0,1,37.43,86.09Zm-10-37.81a2,2,0,1,1-2,2A2,2,0,0,1,27.41,48.28Zm-9,5.38a5.6,5.6,0,0,1,2.35.51l.32.16a6.66,6.66,0,0,0,2.82.62h.33a3.1,3.1,0,0,0,2.55-1.67h1.32a3.1,3.1,0,0,0,2.56,1.67H31a6.68,6.68,0,0,0,2.64-.54,5.72,5.72,0,0,1,.65-.32,5.65,5.65,0,0,1,7.82,5.22A6.67,6.67,0,0,1,40,63.76l-.09.1a6.09,6.09,0,0,0-1.58,3.77v.69a6.06,6.06,0,0,0,.47,2V71.7H16V70.43A6.06,6.06,0,0,0,16.52,68a6.16,6.16,0,0,0-.07-.94,6.08,6.08,0,0,0-1.52-3.18l-.1-.11a6.57,6.57,0,0,1-2.09-4.43A5.66,5.66,0,0,1,18.39,53.66Z"/><rect class="cls-2" x="18.82" y="67.44" width="2.67" height="2.73"/><path class="cls-2" d="M36.21,65.52a8.46,8.46,0,0,1,1.9-3.37c.16-.19,1.55-1.86,1.55-2.89a3.23,3.23,0,0,0-4.47-3l-.37.18-.29.15a9.09,9.09,0,0,1-3.56.72h-.48A5.52,5.52,0,0,1,28.83,57l-.32-.12v8.86h7.65Z"/><rect class="cls-2" x="28.5" y="67.44" width="2.67" height="2.73"/><path class="cls-2" d="M66.31,70.6a9.5,9.5,0,0,0,1.37-.21,6,6,0,0,1,1.26-.17,5.75,5.75,0,0,1,2.37.5v-1a6.7,6.7,0,0,0-2.39-.43,7,7,0,0,0-1.44.19,8.68,8.68,0,0,1-1.25.19A8,8,0,0,1,64,69.49v1A8.89,8.89,0,0,0,66.31,70.6Z"/><path class="cls-2" d="M66.31,68a9.5,9.5,0,0,0,1.37-.21,6,6,0,0,1,1.26-.17,5.75,5.75,0,0,1,2.37.5v-1a6.7,6.7,0,0,0-2.39-.43,7,7,0,0,0-1.44.19,8.68,8.68,0,0,1-1.25.19A8,8,0,0,1,64,66.9v1A8.88,8.88,0,0,0,66.31,68Z"/><path class="cls-2" d="M66.31,65.42a9.46,9.46,0,0,0,1.37-.21A6,6,0,0,1,68.94,65a5.68,5.68,0,0,1,2.37.5v-1a6.39,6.39,0,0,0-2.39-.43,6.94,6.94,0,0,0-1.44.19,8.67,8.67,0,0,1-1.25.19A8,8,0,0,1,64,64.31v1A8.9,8.9,0,0,0,66.31,65.42Z"/><path class="cls-2" d="M66.31,60.25A9.5,9.5,0,0,0,67.68,60a6,6,0,0,1,1.26-.17,5.73,5.73,0,0,1,2.37.5v-1a6.39,6.39,0,0,0-2.39-.43,7,7,0,0,0-1.44.19,8.68,8.68,0,0,1-1.25.19A8,8,0,0,1,64,59.14v1A8.89,8.89,0,0,0,66.31,60.25Z"/><path class="cls-2" d="M66.31,62.84a9.52,9.52,0,0,0,1.37-.21,5.93,5.93,0,0,1,1.26-.17,5.8,5.8,0,0,1,2.37.5v-1a6.37,6.37,0,0,0-2.39-.43,6.93,6.93,0,0,0-1.44.19,8.6,8.6,0,0,1-1.24.19A8,8,0,0,1,64,61.72v1A8.9,8.9,0,0,0,66.31,62.84Z"/><path class="cls-2" d="M66.31,57.66a9.47,9.47,0,0,0,1.37-.21,6,6,0,0,1,1.25-.17,5.76,5.76,0,0,1,2.37.5v-1a6.59,6.59,0,0,0-2.39-.43,7,7,0,0,0-1.44.19,8.67,8.67,0,0,1-1.25.19A8,8,0,0,1,64,56.55v1A8.92,8.92,0,0,0,66.31,57.66Z"/><path class="cls-2" d="M66.59,74.14a9.09,9.09,0,0,1,6.23.77v-.78L72.58,74A6.84,6.84,0,0,0,69,73h-.21l-.51,0a11.75,11.75,0,0,0-1.58.18,12.38,12.38,0,0,1-4.9-.25l-.32-.07V55.4l-.84-.22V73.54A13,13,0,0,0,66.59,74.14Z"/><path class="cls-2" d="M66.59,75.84a9.11,9.11,0,0,1,6.23.76v-.76l-.11-.07-.12-.07a8.23,8.23,0,0,0-5.85-.77,14.15,14.15,0,0,1-6.58-.7l-.29-.09V55.91L59,55.64V74.71C62.1,75.82,64.63,76.21,66.59,75.84Z"/><path class="cls-2" d="M80.52,67.8a9.5,9.5,0,0,0,1.37.21,8.88,8.88,0,0,0,2.31-.14v-1a8,8,0,0,1-2.25.16,8.68,8.68,0,0,1-1.25-.19,7,7,0,0,0-1.44-.19,6.7,6.7,0,0,0-2.39.43v1a5.75,5.75,0,0,1,2.37-.5A6,6,0,0,1,80.52,67.8Z"/><path class="cls-2" d="M81.62,74.14a13,13,0,0,0,5.91-.59V55.18l-.83.22V72.91l-.32.07a12.38,12.38,0,0,1-4.9.25,11.75,11.75,0,0,0-1.58-.18l-.51,0h-.21a6.84,6.84,0,0,0-3.55,1l-.23.13v.78A9.09,9.09,0,0,1,81.62,74.14Z"/><path class="cls-2" d="M80.52,65.22a9.46,9.46,0,0,0,1.37.21,8.9,8.9,0,0,0,2.31-.14v-1a8,8,0,0,1-2.25.16,8.67,8.67,0,0,1-1.25-.19,6.94,6.94,0,0,0-1.44-.19,6.39,6.39,0,0,0-2.39.43v1a5.68,5.68,0,0,1,2.37-.5A6,6,0,0,1,80.52,65.22Z"/><path class="cls-2" d="M52.18,122.51c5.25-1.11,21.69-5.45,32.79-17.93,7-7.85,10.64-17.55,10.9-28.85V36.85H52.18ZM67.71,83.73,66,82.85l-1.68.88.32-1.87-1.36-1.32,1.88-.27.84-1.7.84,1.7,1.88.27-1.36,1.32Zm16.13,0-1.68-.88-1.68.88.32-1.87-1.36-1.32,1.88-.27.84-1.7.84,1.7,1.88.27-1.36,1.32ZM74.57,71.36V55.24A8.89,8.89,0,0,1,76,54.4a8.25,8.25,0,0,1,3.42-.68,12.28,12.28,0,0,1,2.23.22,7.77,7.77,0,0,0,1,.11,13.11,13.11,0,0,0,3.62-.36l.5-.11v1c.37-.09.74-.19,1.12-.31l.53-.16v1l1.08-.38.55-.21V75.28l-.26.1c-3.31,1.24-6.08,1.67-8.24,1.27a8.29,8.29,0,0,0-5.72.7H74.57Zm.37,11.2,1.88.27-1.36,1.32L75.78,86l-1.68-.88L72.42,86l.32-1.87-1.36-1.32,1.88-.27.84-1.7ZM58.23,54.47l.55.21,1.08.38v-1l.53.16c.38.12.76.22,1.12.31v-1l.5.11a13.11,13.11,0,0,0,3.62.36,7.78,7.78,0,0,0,1-.11,12.28,12.28,0,0,1,2.23-.22,8.25,8.25,0,0,1,3.42.68,8.89,8.89,0,0,1,1.39.84V77.34H72.46a8.29,8.29,0,0,0-5.72-.7c-2.16.4-4.93,0-8.24-1.27l-.26-.1Z"/><path class="cls-2" d="M81.62,75.84c2,.36,4.49,0,7.54-1.13V55.64l-.82.27V74.15l-.29.09a14.15,14.15,0,0,1-6.58.7,8.23,8.23,0,0,0-5.85.77l-.12.07-.11.07v.76A9.11,9.11,0,0,1,81.62,75.84Z"/><path class="cls-2" d="M80.52,70.39a9.5,9.5,0,0,0,1.37.21,8.89,8.89,0,0,0,2.31-.14v-1a8,8,0,0,1-2.25.16,8.68,8.68,0,0,1-1.25-.19,7,7,0,0,0-1.44-.19,6.7,6.7,0,0,0-2.39.43v1a5.75,5.75,0,0,1,2.37-.5A6,6,0,0,1,80.52,70.39Z"/><path class="cls-2" d="M80.52,60a9.5,9.5,0,0,0,1.37.21,8.89,8.89,0,0,0,2.31-.14v-1A8,8,0,0,1,82,59.3a8.68,8.68,0,0,1-1.25-.19,7,7,0,0,0-1.44-.19,6.39,6.39,0,0,0-2.39.43v1a5.73,5.73,0,0,1,2.37-.5A6,6,0,0,1,80.52,60Z"/><path class="cls-2" d="M80.52,57.45a9.47,9.47,0,0,0,1.37.21,8.92,8.92,0,0,0,2.31-.14v-1a8,8,0,0,1-2.25.16,8.67,8.67,0,0,1-1.25-.19,7,7,0,0,0-1.44-.19,6.59,6.59,0,0,0-2.39.43v1a5.76,5.76,0,0,1,2.37-.5A6,6,0,0,1,80.52,57.45Z"/><path class="cls-2" d="M80.52,62.63a9.53,9.53,0,0,0,1.37.21,8.9,8.9,0,0,0,2.31-.14v-1a8,8,0,0,1-2.25.16,8.6,8.6,0,0,1-1.24-.19,6.93,6.93,0,0,0-1.44-.19,6.37,6.37,0,0,0-2.39.43v1a5.8,5.8,0,0,1,2.37-.5A5.93,5.93,0,0,1,80.52,62.63Z"/><path class="cls-2" d="M229.15,84.54l2.44-.73v-41c0-9.92,0-10.33,3.17-10.66l2.93-.24V30.15H217.93V31.9l2.92.24c3.17.33,3.17.73,3.17,10.66v33a19.56,19.56,0,0,1-14.71,6.51c-12.6,0-14.55-7.73-14.55-19.36V42.8c0-9.93,0-10.33,3.17-10.66l2.92-.24V30.15H181.1V31.9l2.93.24c3.17.33,3.17.73,3.17,10.66V64.28c0,11.06,1.38,20.74,18.21,20.74,10.81,0,17.56-5.12,18.7-5.12s1.87,1.14,3,2.27Z"/><path class="cls-2" d="M250.93,83.81h22.52V82.05l-2.93-.24C266,81.48,266,81.08,266,71.15V32.43h4.23c11.47,0,11.63,1.22,13.42,10.66h1.95c0-.33-.4-11.14-.73-12.93H239.54c-.33,1.79-.73,12.6-.73,12.93h2c1.78-9.44,1.95-10.66,13.41-10.66h4.23V71.15c0,9.93,0,10.33-4.47,10.66l-3,.24Z"/><path class="cls-2" d="M335.61,73.1c0-7.91,0-8.32,1.54-8.65l2.93-.24V62.46H319.42v1.75l2.93.24c5.68.33,5.68.73,5.68,10.69v6.14a41.58,41.58,0,0,1-9.51,1.06c-15.93,0-23-12.88-23-26.74,0-15.2,8.37-24,21.7-24,13.9,0,15,9.91,15.78,13.17l2.19-.49c-.35-4-.79-8.56-1.3-12-2.11-1.3-8.29-3.33-16.58-3.33-12.85,0-30.32,6.5-30.32,28.21C287,77.86,301.62,85,318,85a53.87,53.87,0,0,0,17.79-3.24s-.15-6.23-.15-8.68"/><path class="cls-2" d="M345.07,83.81h37.24A134.85,134.85,0,0,0,385,70.31L383,70c-1.63,6.67-2.44,11.55-15.39,11.55a46.77,46.77,0,0,1-8.84-1.06V57.06h7.22c6.32,0,7.79.08,8.27,3.42l.41,2.76h2.14V48.61h-2.14l-.41,2.76c-.49,3.33-1.95,3.41-8.27,3.41h-7.22V32.43h6.73c11.48,0,11.64,1.22,13.43,9.92l1.95-.32c0-.73-.41-10.08-.73-11.87h-35V31.9l2.93.24c3.17.33,3.17.73,3.17,10.67V71.14c0,9.94,0,10.35-3.17,10.68l-2.93.24Z"/><path class="cls-2" d="M405,33.48a26,26,0,0,1,5-.65c6.34,0,12.59,2.93,12.59,12.44,0,9.18-6.17,12.84-13,12.84H405ZM391.36,83.81H411V82.05l-2.93-.24C405,81.48,405,81.08,405,71.15V60.39h3c1.71,0,3.73,0,5,1.06,1.05.9,2.92,4,5,8l3.25,6.27c2.44,4.48,6.18,8.1,11.54,8.1h6.26V82.05a8.47,8.47,0,0,1-4.07-.81c-2-1.14-5.61-5.95-9-12.06-2.2-3.91-4.88-9.12-6.1-11.4,4.47-2.11,11.22-6.59,11.22-14.17,0-12.36-10.89-13.47-18.61-13.47H391.36V31.9l2.93.24c3.17.33,3.17.73,3.17,10.67V71.15c0,9.93,0,10.34-3.17,10.67l-2.93.24Z"/><path class="cls-2" d="M456.87,50.47c-4.39-2.6-7.88-5.2-7.88-10a8.62,8.62,0,0,1,8.86-8.86c9.18,0,10.48,7.07,11.29,11.13h2c-.19-2.36-.39-8.32-.82-11.22a22.72,22.72,0,0,0-11.21-2.6c-8.62,0-16.91,4.14-16.91,14.06,0,6.1,4.31,11.14,8.94,13.66l5.2,2.85c6.34,2.84,11.3,6.91,11.3,12.84,0,6.34-4.15,10-9.76,10-11.14,0-14.14-9.67-15-15.53l-2.6.65c.92,5.57,1.83,11.23,2.6,14.31C445.4,83.32,449.3,85,455.65,85c8.61,0,18.77-4.23,18.77-15.2,0-9.76-6.66-13.17-13.09-16.83Z"/><path class="cls-2" d="M141.66,52.85c2.49.13,5.16-.07,7.65-.07,9.62,0,15.51-5.17,15.51-14.78,0-10.47-6-16.89-16.63-16.89a33.42,33.42,0,0,0-6.51.85Zm20.76,0c.93,5.15,8.1,18.38,10.86,23.3,6.23,11.48,22.17,34.71,34.11,34h1.38V112l-2.1.07c-16.87.66-31.94-18.14-40.71-33.21-3.57-6.13-7-13.24-10.11-19.63A7.38,7.38,0,0,0,153,55.86c-1.66-.88-3.83-.87-5.63-.87h-5.74V68.54c0,2.49-.19,8.66.49,11.09.54,1.91,1.69,2.16,3.61,2.36l3.3.27v1.53H126V82.26l3.31-.27c2-.2,3.15-.45,3.69-2.36.69-2.4.5-8.61.5-11.09V33.7c0-2.47.19-8.68-.5-11.08-.55-1.92-1.73-2.16-3.69-2.36L126,20V18.45h15.71c13.83,0,32.5-2,32.5,17.48,0,7.87-5.35,13-11.89,16.21a6.33,6.33,0,0,0,.1.7"/><path class="cls-3" d="M239.68,133.65c-1.08,2.79-3.65,3.92-6.3,3.92a9.25,9.25,0,0,1-5.31-1.6l-.12-.34.12-1.91.29-.06a6.57,6.57,0,0,0,4.93,2.23c2.57,0,5-1.57,5-4.58,0-5.86-10.42-4-10.42-11.07,0-4,3.15-5.74,6.51-5.74a9.42,9.42,0,0,1,4.93,1.22l.17.28-.17,1.54-.26.16a7.79,7.79,0,0,0-4.7-1.54c-2.33,0-4.61,1.16-4.61,4,0,5.49,10.45,3.39,10.45,11.19A6.31,6.31,0,0,1,239.68,133.65Z"/><path class="cls-3" d="M250.77,122.52l-.17.16c-1.08,0-2.19,0-3.27-.06v10.1c0,1.32.12,2.88,1.69,2.88a3.68,3.68,0,0,0,1.52-.31l.23.13c-.09.47-.06,1-.12,1.44l-.2.25a6.39,6.39,0,0,1-1.55.22c-3.18,0-3.42-2.1-3.42-5,0-2.23.06-4.45.06-6.65v-3.1c-.79,0-1.61,0-2.39.06l-.15-.22c0-.44.06-.85.06-1.29l.17-.19c.76,0,1.55.06,2.31.06v-.19c0-1.22-.06-2.45-.12-3.67l.17-.19a15.55,15.55,0,0,0,1.72-.44l.17.22c-.12,1.41-.15,2.85-.15,4.26,1.11,0,2.25,0,3.36-.06l.15.19A10.44,10.44,0,0,0,250.77,122.52Z"/><path class="cls-3" d="M266.07,137.1l-1.61.09-.18-.19c0-.5,0-1,.06-1.47a7.09,7.09,0,0,1-5,1.94,5.09,5.09,0,0,1-3.18-1c-2.16-1.69-1.81-4.92-1.81-7.43v-2q0-2.92-.09-5.83l.17-.19a16.45,16.45,0,0,0,1.75-.09l.15.19c-.06,2-.09,4-.09,6v3.79c0,2.63.67,4.89,3.53,4.89a6.15,6.15,0,0,0,4.44-2V129c0-2.6-.06-5.21-.23-7.78l.18-.22a10.61,10.61,0,0,0,1.72-.09l.15.22c0,2.07,0,4.11,0,6.18,0,3.2,0,6.4.23,9.56Z"/><path class="cls-3" d="M283.46,137.1c-.53,0-1.05,0-1.58.06l-.15-.19v-1.44a6.1,6.1,0,0,1-4.41,1.79c-4.17,0-6.54-3.79-6.54-8a9.66,9.66,0,0,1,1.05-4.52c1.81-3.29,5-4,8.29-4,.47,0,1,.06,1.43.06-.12-2.76,0-5.49-.26-8.22l.18-.19c.61-.09,1.2-.22,1.81-.34l.17.19c0,2.48-.06,5-.06,7.46v4.67c0,4.14.06,8.28.23,12.42Zm-1.81-9.53c0-1.66-.06-3.32-.06-5a15.32,15.32,0,0,0-1.69-.06c-4.29,0-7.21,1.72-7.21,6.74,0,3.35,1.63,6.33,5,6.33a5.26,5.26,0,0,0,4-1.91C281.65,131.65,281.68,129.61,281.65,127.57Z"/><path class="cls-3" d="M301,128.86h-11c0,3.79,2,6.87,5.72,6.87a6.86,6.86,0,0,0,4.79-2l.23.13c-.06.6-.12,1.19-.12,1.79l-.15.31a9,9,0,0,1-5,1.57c-4.7,0-7.36-3.57-7.36-8.43,0-4.64,2.31-8.37,6.92-8.37s6.16,3.61,6.16,8Zm-6.07-6.65c-2.92,0-4.5,2.1-4.87,5h9.2C299.22,124.4,297.71,122.21,294.9,122.21Z"/><path class="cls-3" d="M317.32,137.1c-.58,0-1.17.06-1.75.06l-.15-.19c0-1.35,0-2.7,0-4,0-2-.06-4-.06-6,0-2.42-.44-4.55-3.15-4.55a7.32,7.32,0,0,0-4.76,2.07v.69c0,3.92,0,7.84.26,11.73l-.2.19a15.36,15.36,0,0,0-1.69.09l-.15-.22c.06-1.22,0-2.48,0-3.73v-2.48c0-3.1-.06-6.27-.32-9.38l.18-.22a16.93,16.93,0,0,0,1.75-.31l.17.19c-.06.56-.09,1.1-.12,1.66a8.85,8.85,0,0,1,5.37-2,4.12,4.12,0,0,1,4.06,2.57,11.7,11.7,0,0,1,.44,4l.06,3.2c0,2.13.09,4.3.17,6.43Z"/><path class="cls-3" d="M328.65,122.52l-.17.16c-1.08,0-2.19,0-3.27-.06v10.1c0,1.32.12,2.88,1.69,2.88a3.68,3.68,0,0,0,1.52-.31l.23.13c-.09.47-.06,1-.12,1.44l-.2.25a6.39,6.39,0,0,1-1.55.22c-3.18,0-3.41-2.1-3.41-5,0-2.23.06-4.45.06-6.65v-3.1c-.79,0-1.6,0-2.39.06l-.15-.22c0-.44.06-.85.06-1.29l.17-.19c.76,0,1.55.06,2.31.06v-.19c0-1.22-.06-2.45-.12-3.67l.17-.19a15.55,15.55,0,0,0,1.72-.44l.17.22c-.12,1.41-.15,2.85-.15,4.26,1.11,0,2.25,0,3.36-.06l.15.19A10.44,10.44,0,0,0,328.65,122.52Z"/><path class="cls-3" d="M356.49,137c-.67,0-1.31,0-2,.06l-.18-.19c-.2-.75-.38-1.47-.55-2.23-.41-1.66-.9-3.32-1.4-5h-8.09c-.73,2.38-1.43,4.74-2,7.18l-.23.16h-1.72l-.15-.25c.79-2.35,1.55-4.74,2.28-7.12,1.52-4.86,3.07-9.72,4.5-14.61l.17-.16c.82,0,1.66,0,2.48-.09l.2.16c1.23,4.08,2.48,8.12,3.74,12.17,1,3.23,2,6.46,3,9.66Zm-8.23-21-3.5,12c1,0,2,0,3.07,0H350c.61,0,1.23,0,1.84,0Z"/><path class="cls-3" d="M366.3,114.4l-.23.22a3.09,3.09,0,0,0-1.05-.19c-2.19,0-2.39,1.5-2.39,3.45,0,1.07,0,2.13,0,3.2,1.05,0,2.1-.06,3.15-.06l.2.25a8.29,8.29,0,0,0-.09,1.19l-.2.25c-.73,0-1.43-.06-2.16-.06h-.91V126q0,3.62.09,7.24c0,1.22.09,2.41.09,3.64l-.15.19c-.55,0-1.11,0-1.66.06l-.2-.19c0-1,0-2,0-3,0-3.79,0-7.56,0-11.35-.85,0-1.66,0-2.51,0l-.2-.19c0-.44.06-.88.06-1.32l.2-.22a21,21,0,0,0,2.42.09c0-1.13-.06-2.29-.06-3.42,0-3.23,1.31-4.8,4.38-4.8a6.71,6.71,0,0,1,1.11.13l.15.25A8.11,8.11,0,0,0,366.3,114.4Z"/><path class="cls-3" d="M375.67,114.4l-.23.22a3.09,3.09,0,0,0-1.05-.19c-2.19,0-2.39,1.5-2.39,3.45,0,1.07,0,2.13,0,3.2,1.05,0,2.1-.06,3.15-.06l.2.25a8.28,8.28,0,0,0-.09,1.19l-.2.25c-.73,0-1.43-.06-2.16-.06H372V126q0,3.62.09,7.24c0,1.22.09,2.41.09,3.64l-.15.19c-.55,0-1.11,0-1.66.06l-.2-.19c0-1,0-2,0-3,0-3.79,0-7.56,0-11.35-.85,0-1.66,0-2.51,0l-.2-.19c0-.44.06-.88.06-1.32l.2-.22a21,21,0,0,0,2.42.09c0-1.13-.06-2.29-.06-3.42,0-3.23,1.31-4.8,4.38-4.8a6.71,6.71,0,0,1,1.11.13l.15.25A8.12,8.12,0,0,0,375.67,114.4Z"/><path class="cls-3" d="M388.72,137.1c-.53,0-1.05,0-1.58.09L387,137l0-1.13a6.68,6.68,0,0,1-4.23,1.6,4.78,4.78,0,0,1-4.87-5.11c0-5.33,5.46-5.55,9.11-6.11v-.63c0-2.54-1-3.29-3.3-3.29a7.57,7.57,0,0,0-4,1.19l-.23-.13c.06-.5.06-1,.09-1.47l.15-.22a9.83,9.83,0,0,1,4.41-1c1.78,0,3.65.56,4.38,2.51a6.56,6.56,0,0,1,.26,2.26c0,1.72,0,3.45,0,5.2v2.16a37.39,37.39,0,0,0,.2,4Zm-1.78-9.28c-2.63.44-7.24.63-7.24,4.55a3.3,3.3,0,0,0,3.41,3.42,5.22,5.22,0,0,0,3.82-1.66Z"/><path class="cls-3" d="M396.34,115.5l-.2.25c-.61.06-1.26.09-1.87.19l-.23-.25c.06-.66,0-1.29,0-1.94l.23-.25c.61-.06,1.26-.09,1.87-.19l.21.25C396.36,114.21,396.34,114.84,396.34,115.5Zm-.06,21.6c-.58,0-1.17,0-1.75,0l-.15-.19c0-1.25,0-2.51,0-3.76,0-3.92,0-7.87-.26-11.79l.17-.19a11.46,11.46,0,0,0,1.75-.31l.17.19c-.09,1.19-.09,2.42-.09,3.61,0,4.08.15,8.15.29,12.23Z"/><path class="cls-3" d="M408.24,122.93l-.23.19a2.21,2.21,0,0,0-1.23-.41c-2.83,0-2.95,4-2.95,6.21,0,2.67,0,5.33.15,8l-.15.19c-.58,0-1.17,0-1.75,0l-.17-.19v-.78c0-1.19.06-2.42.06-3.61V129c0-2.54-.09-5.08-.26-7.59l.17-.19a16.71,16.71,0,0,0,1.72-.28l.2.19c-.06.82-.06,1.66-.06,2.48.55-1.6,1.61-2.85,3.3-2.85a2.5,2.5,0,0,1,1.25.31l.18.22A15.09,15.09,0,0,0,408.24,122.93Z"/><path class="cls-3" d="M415.28,137.48a8,8,0,0,1-4.35-1.22l-.15-.25c.09-.6.15-1.22.18-1.82l.23-.09a5.6,5.6,0,0,0,4.2,1.79c1.84,0,3.74-.85,3.74-3.14,0-4.52-8.26-1.29-8.26-7.59,0-3.1,2.71-4.48,5.25-4.48a9.51,9.51,0,0,1,4,.94l.12.22c-.09.6-.15,1.22-.21,1.82l-.15.06a5.83,5.83,0,0,0-3.85-1.35c-1.55,0-3.36.75-3.36,2.7,0,4.14,8.26,1.6,8.26,7.59C421,136.1,418.11,137.48,415.28,137.48Z"/></g></g></svg>